<svg xmlns="http://www.w3.org/2000/svg" width="1600" height="430" viewBox="0 0 1600 430"><metadata id="bizarre-atlas-provenance">{"algorithm":{"name":"bizarre-atlas-single-mass","version":"1.0.0"},"aperturePathSha256":"bb4079e12e6db7bb2387dc7fbe174b3283b57d5af4d4e942e4053bd96158c9dd","apertureVersion":"continuous-lens-aperture/owner-selected-left-v2","appearance":"dark","configuration":{"algorithm":{"name":"bizarre-atlas-single-mass","version":"1.0.0"},"aperture":{"pathSha256":"bb4079e12e6db7bb2387dc7fbe174b3283b57d5af4d4e942e4053bd96158c9dd","version":"continuous-lens-aperture/owner-selected-left-v2"},"capture":{"duration":{"ceremonial":1200,"fastMax":600,"fastMin":300,"installation":2400,"unit":"ms"},"phases":{"approach":{"end":0.32,"start":0},"compress":{"end":0.55,"start":0.32},"eclipse":{"end":0.72,"start":0.55},"lock":{"end":0.88,"start":0.72},"release":{"end":1,"start":0.88}},"reducedMotionState":"captured"},"dimensions":{"height":430,"width":1600},"field":{"compressionExponent":1.72,"lineWidths":{"band":14,"major":4,"minor":1,"unit":"px"},"majorInterval":5,"mass":{"x":0.69,"y":0.53},"parameters":{"apertureRadius":{"x":0.103},"asymmetry":0.22,"extent":1.1,"fieldStrength":{"far":0.1,"near":0.18},"lineCounts":{"field":27,"large":53,"medium":19,"micro":0,"small":7},"occlusionExpansion":1.02,"sampleCount":140,"spacing":0.0305,"spacingByOpticalSize":{"large":0.01525},"tiltScale":0.003}},"orientation":18,"palette":{"backgrounds":{"dark":"#0E0E0E","light":"#F9F8F2"},"neutral":{"darkMajor":"#B8B8B8","darkMinor":"#545454","lightMajor":"#545454","lightMinor":"#3D3D3D","paper":"#F9F8F2","void":"#0E0E0E"},"signal":"#C6FF24","spectrum":["#20274D","#3156A6","#4AA5AF","#5C887C","#D5A347","#C96C3E","#B64C63","#684F83"]},"render":{"appearance":"dark","opticalSize":"sequence","productionProfile":"screen","representation":"capture-sequence","trajectoryState":"capture-sequence"},"sourceDocuments":{"atlas":{"path":"tokens/source/atlas.tokens.json","sha256":"f9ea6d70b46763a19b18d409b8009fea3b4702ce2e85db4fa7f75a4e424303be"},"capture":{"path":"tokens/source/capture.tokens.json","sha256":"9aa9800b02cef2a5aece083794bb694a5481c994782735be0c1334c116ae89ff"},"material":{"path":"tokens/source/material.tokens.json","sha256":"d9187741a039bb86cae5a7f25125cc53d16be113eb123c0e53bd9264265fdb45"},"motion":{"path":"tokens/source/motion.tokens.json","sha256":"d309baee4fc7f8a6d945814b57547bba6da10258caa48fef4778d736ec4d5e32"},"palette":{"path":"tokens/source/palette.tokens.json","sha256":"6a19e3a3fb43a93dc01905606c3005848cc77da00ae12c53f7818b226bf56a50"},"productionPolicy":{"path":"policies/production.json","sha256":"3b46d4912cb34cb657832cb53e96f0d61ad34b15c515bfa89e9b37e487442315"},"provenancePolicy":{"path":"policies/provenance.json","sha256":"aba4b407ef8022cd91860c0b2a2599c4998c78b68b5ece86a69564082efe35c9"},"rendererConfig":{"path":"packages/atlas/src/renderer-config.json","sha256":"01410a36941de6e7e5db88d414dd8a5e30e39c7c57a010b56c9761acafe79951"}}},"configurationHash":"3f2cf390fb2de1e6869f3215e7c5f9966ba3b5277df4fa248c0fb6b3958fd518","fieldConfigurationHash":"0294208fa2ea14b7407237649cdc6e0f46adf20bb72242a45811f2a4059eb617","model":{"name":"single-mass-lensing-field","version":"1.0.0"},"opticalSize":"sequence","orientation":18,"orientationUnit":"deg","productionProfile":"screen","representation":"capture-sequence","schemaVersion":1,"sourceIdentifier":"synthetic:bizarre-atlas-single-mass@1.0.0:0294208fa2ea14b7407237649cdc6e0f46adf20bb72242a45811f2a4059eb617","sourceType":"synthetic","trajectoryState":"capture-sequence"}</metadata><g data-layer="capture-phase" data-phase="approach"><rect x="0" y="0" width="320" height="430" fill="#0E0E0E" stroke="#545454" stroke-width="1"/><path d="M 19.2 296.567 C 108.8 266.552 185.6 236.524 300.8 124.833" fill="none" stroke="#545454" stroke-width="4"/><path data-layer="continuous-lens-aperture" d="M 180.436 237.964 C 177.888 227.747 193.895 214.958 216.187 209.4 C 238.48 203.842 258.617 207.619 261.164 217.836 C 263.712 228.053 247.705 240.842 225.413 246.4 C 203.12 251.958 182.983 248.181 180.436 237.964 Z" fill="#0E0E0E" stroke="#F9F8F2" stroke-width="4"/><circle data-layer="signal-state" cx="61.435" cy="281.824" r="4" fill="#C6FF24"/></g><g data-layer="capture-phase" data-phase="compress"><rect x="320" y="0" width="320" height="430" fill="#0E0E0E" stroke="#545454" stroke-width="1"/><path d="M 339.2 296.567 C 428.8 266.552 505.6 236.524 620.8 124.833" fill="none" stroke="#545454" stroke-width="4"/><path data-layer="continuous-lens-aperture" d="M 500.436 237.964 C 497.888 227.747 513.895 214.958 536.187 209.4 C 558.48 203.842 578.617 207.619 581.164 217.836 C 583.712 228.053 567.705 240.842 545.413 246.4 C 523.12 251.958 502.983 248.181 500.436 237.964 Z" fill="#0E0E0E" stroke="#F9F8F2" stroke-width="4"/><circle data-layer="signal-state" cx="453.076" cy="250.669" r="4" fill="#C6FF24"/></g><g data-layer="capture-phase" data-phase="eclipse"><rect x="640" y="0" width="320" height="430" fill="#0E0E0E" stroke="#545454" stroke-width="1"/><path d="M 659.2 296.567 C 748.8 266.552 825.6 236.524 940.8 124.833" fill="none" stroke="#545454" stroke-width="4"/><path data-layer="continuous-lens-aperture" d="M 820.436 237.964 C 817.888 227.747 833.895 214.958 856.187 209.4 C 878.48 203.842 898.617 207.619 901.164 217.836 C 903.712 228.053 887.705 240.842 865.413 246.4 C 843.12 251.958 822.983 248.181 820.436 237.964 Z" fill="#0E0E0E" stroke="#F9F8F2" stroke-width="4"/><circle data-layer="signal-state" cx="827.514" cy="218.466" r="4" fill="#C6FF24"/></g><g data-layer="capture-phase" data-phase="lock"><rect x="960" y="0" width="320" height="430" fill="#0E0E0E" stroke="#545454" stroke-width="1"/><path d="M 979.2 296.567 C 1068.8 266.552 1145.6 236.524 1260.8 124.833" fill="none" stroke="#545454" stroke-width="4"/><path data-layer="continuous-lens-aperture" d="M 1140.436 237.964 C 1137.888 227.747 1153.895 214.958 1176.187 209.4 C 1198.48 203.842 1218.617 207.619 1221.164 217.836 C 1223.712 228.053 1207.705 240.842 1185.413 246.4 C 1163.12 251.958 1142.983 248.181 1140.436 237.964 Z" fill="#0E0E0E" stroke="#F9F8F2" stroke-width="4"/><circle data-layer="signal-state" cx="1195.878" cy="182.701" r="4" fill="#C6FF24"/></g><g data-layer="capture-phase" data-phase="release"><rect x="1280" y="0" width="320" height="430" fill="#0E0E0E" stroke="#545454" stroke-width="1"/><path d="M 1299.2 296.567 C 1388.8 266.552 1465.6 236.524 1580.8 124.833" fill="none" stroke="#545454" stroke-width="4"/><path data-layer="continuous-lens-aperture" d="M 1460.436 237.964 C 1457.888 227.747 1473.895 214.958 1496.187 209.4 C 1518.48 203.842 1538.617 207.619 1541.164 217.836 C 1543.712 228.053 1527.705 240.842 1505.413 246.4 C 1483.12 251.958 1462.983 248.181 1460.436 237.964 Z" fill="#0E0E0E" stroke="#F9F8F2" stroke-width="4"/><circle data-layer="signal-state" cx="1560.468" cy="144.073" r="4" fill="#C6FF24"/></g></svg>
