<svg xmlns="http://www.w3.org/2000/svg" viewBox="261.29998779296875 253.89999389648438 506.89996337890625 506.8000183105469">\n  <g aria-label="Bizarre Industries gravity-well mark">\n<path class="st0" d="M536.9,529.8c39-39,97.3-44.1,130.1-11.4c5.6,5.6,10.1,12,13.6,18.9c1.4-3.1,2.6-6.1,3.9-9.2   c-2.6-18.6-10.4-35.7-23.7-49c-16.6-16.6-39.1-24.7-63.1-24.7c-32,0-66.8,14.3-94.3,41.7c-23.4,23.4-38,52.8-41.2,82.6   c-3.1,29.6,5.5,56.1,24.1,74.7c12.9,12.9,29.7,21,48.7,23.7c3.2-1.2,6.3-2.6,9.4-3.9c-6.9-3.4-13.3-7.9-18.9-13.5   c-15.9-15.9-23.5-38.3-21.2-63C506.5,572.4,518.1,548.6,536.9,529.8z" style="fill: none;"></path><path class="st0" d="M568.3,353.9c-6.4,0-13,0.4-19.7,1.2c-44.5,5.3-88.4,27.6-123.7,62.8c-72.5,72.5-85.3,177.8-28.5,234.6   c23.7,23.7,56.5,36.1,93.5,35.5c-20.5-4.6-39.3-14.3-54.3-29.3c-50.9-50.9-40.7-143.9,22.8-207.3c30.6-30.6,68.9-49.9,107.9-54.3   c39.3-4.4,74.6,6.8,99.4,31.5c14.6,14.6,24.5,32.9,29.2,53.5c0.3-35.5-11.3-68.6-35.5-92.8C636.3,366.2,604.4,353.9,568.3,353.9z" style="fill: none;"></path><path class="st0" d="M658.5,651.4c101.1-101.1,115.4-251.2,32-334.6c-35.5-35.5-83.8-54.4-137.9-54.4c-7.4,0-14.9,0.4-22.5,1.1   c-63.3,6-125.3,36.3-174.3,85.3c-101.1,101.1-115.4,251.2-32,334.6c36.5,36.5,85.8,54.3,138.1,54.3   C529.3,737.7,601.6,708.3,658.5,651.4z M456.9,700.9c-43.9,0-82.6-15-111-43.4c-33.6-33.6-48.4-81.8-41.8-135.7   c6.6-53.6,33.5-106.4,76-148.9c42.4-42.4,95.3-69.4,148.9-76c53.9-6.6,102.1,8.2,135.7,41.8c33.6,33.6,48.4,81.8,41.8,135.7   c-6.6,53.6-33.5,106.4-76,148.9c-42.4,42.4-95.3,69.4-148.9,76C473.2,700.4,465,700.9,456.9,700.9z" style="fill: none;"></path><path class="st0" d="M583,404.2c-5.1,0-10.4,0.3-15.7,0.9c-37.2,4.2-73.8,22.7-103.2,52c-60.3,60.3-70.5,148.2-22.8,196   c20.2,20.2,47.7,30,77.1,30.1c0.7-0.2,1.4-0.4,2-0.6c-15.3-4.3-28.9-12.1-39.9-23.2c-20.4-20.4-29.7-49.2-26.4-81.2   c3.3-31.7,18.8-62.8,43.5-87.5c51.2-51.2,126.9-58.9,168.7-17.1c11.3,11.3,19,25.1,23.2,40.3c0.2-0.7,0.5-1.4,0.7-2.2   c0.1-30.6-10.4-57.6-30.1-77.3C640.4,414.6,613.5,404.2,583,404.2z" style="fill: none;"></path><path class="st0" d="M455.9,692.8c-25.1-5.3-47.4-17-65-34.7c-29.2-29.2-42.2-70.9-36.7-117.5c5.5-46.3,28.6-91.9,65.1-128.4   c36.5-36.5,82.1-59.7,128.4-65.1c46.6-5.5,88.4,7.5,117.5,36.7c17.7,17.7,29.5,40.2,34.8,65.5c-0.1-41.5-14.3-78-41-104.7   c-27.6-27.6-65.1-40.9-105.6-40.9c-56.3,0-118.4,25.8-167.6,75.1c-41.2,41.2-67.3,92.4-73.7,144.2c-6.3,51.4,7.7,97.3,39.5,129   C378.9,679.2,415.9,692.5,455.9,692.8z" style="fill: none;"></path><path class="st0" d="M661.3,524.1c-12.9-12.9-30.4-19.2-49-19.2c-23.9,0-49.6,10.4-69.8,30.6c-17.5,17.5-28.2,39.5-30.3,62.1   c-2,22.3,4.7,42.4,18.9,56.7c6.6,6.6,14.4,11.5,22.9,14.7c6.6-3.3,13.2-6.9,19.6-10.8c-0.1-0.1-0.3-0.3-0.4-0.4   c-22.1-22.1-19.6-60.5,5.7-85.8c25.3-25.3,63.7-27.8,85.8-5.7c0.2,0.2,0.3,0.3,0.5,0.5c3.9-6.4,7.5-13,10.8-19.6   C672.8,538.4,667.8,530.6,661.3,524.1z" style="fill: none;"></path><path d="M630.5,623.4c42.4-42.4,69.4-95.3,76-148.9c6.6-53.9-8.2-102.1-41.8-135.7c-33.6-33.6-81.8-48.4-135.7-41.8   c-53.6,6.6-106.4,33.5-148.9,76c-42.4,42.4-69.4,95.3-76,148.9c-6.6,53.9,8.2,102.1,41.8,135.7c28.4,28.4,67.1,43.4,111,43.4   c8.1,0,16.3-0.5,24.7-1.5C535.2,692.8,588,665.8,630.5,623.4z M312.1,522.9c6.3-51.8,32.5-103,73.7-144.2   c49.3-49.3,111.4-75.1,167.6-75.1c40.5,0,78,13.4,105.6,40.9c26.7,26.7,40.9,63.3,41,104.7c-5.3-25.3-17-47.7-34.8-65.5   c-29.2-29.2-70.9-42.2-117.5-36.7c-46.3,5.5-91.9,28.6-128.4,65.1c-36.5,36.5-59.7,82.1-65.1,128.4c-5.5,46.6,7.5,88.4,36.7,117.5   c17.6,17.6,39.9,29.4,65,34.7c-40-0.3-77-13.6-104.3-40.9C319.8,620.1,305.8,574.3,312.1,522.9z M695,482.2   c-4.7-20.6-14.6-38.9-29.2-53.5c-24.8-24.8-60.1-36-99.4-31.5c-39,4.4-77.3,23.7-107.9,54.3c-63.4,63.4-73.6,156.4-22.8,207.3   c15,15,33.7,24.7,54.3,29.3c-37,0.5-69.8-11.8-93.5-35.5c-56.8-56.8-44.1-162.1,28.5-234.6c35.3-35.3,79.2-57.6,123.7-62.8   c6.7-0.8,13.3-1.2,19.7-1.2c36.1,0,68,12.3,91.2,35.6C683.8,413.6,695.3,446.7,695,482.2z M690.2,511.7c-0.2,0.7-0.5,1.4-0.7,2.2   c-4.2-15.1-11.9-28.9-23.2-40.3c-41.8-41.8-117.5-34.1-168.7,17.1c-24.7,24.7-40.1,55.8-43.5,87.5c-3.4,32,6,60.9,26.4,81.2   c11.1,11.1,24.7,18.9,39.9,23.2c-0.7,0.2-1.4,0.4-2,0.6c-29.5,0-56.9-9.9-77.1-30.1c-47.8-47.8-37.5-135.7,22.8-196   c29.3-29.3,66-47.8,103.2-52c5.3-0.6,10.6-0.9,15.7-0.9c30.5,0,57.4,10.4,77.1,30.1C679.9,454.1,690.3,481.1,690.2,511.7z    M525.5,659.9c5.6,5.6,12,10.1,18.9,13.5c-3.1,1.4-6.3,2.7-9.4,3.9c-19-2.7-35.7-10.8-48.7-23.7c-18.6-18.6-27.2-45.2-24.1-74.7   c3.1-29.9,17.7-59.2,41.2-82.6c27.5-27.5,62.3-41.7,94.3-41.7c24,0,46.5,8.1,63.1,24.7c13.3,13.3,21.1,30.4,23.7,49   c-1.2,3.1-2.5,6.2-3.9,9.2c-3.5-7-8-13.4-13.6-18.9c-32.7-32.7-91.1-27.6-130.1,11.4c-18.8,18.8-30.4,42.6-32.6,67   C502,621.6,509.6,644,525.5,659.9z M664.7,566.2c-22.1-22.1-60.5-19.6-85.8,5.7c-25.3,25.3-27.8,63.7-5.7,85.8   c0.1,0.1,0.3,0.3,0.4,0.4c-6.5,3.9-13,7.6-19.6,10.8c-8.5-3.2-16.3-8.1-22.9-14.7c-14.2-14.2-21-34.4-18.9-56.7   c2.1-22.6,12.8-44.6,30.3-62.1c20.2-20.2,45.9-30.6,69.8-30.6c18.6,0,36,6.3,49,19.2c6.5,6.5,11.5,14.3,14.7,23   c-3.3,6.6-6.9,13.2-10.8,19.6C665,566.5,664.9,566.3,664.7,566.2z" style="fill: #545454; fill-opacity: 1;"></path><path d="M751.8,477.9c6.2-65.5-13.6-124.7-55.6-166.7c-28-28-63.7-46.2-103.8-53.3h-81c-58.8,9.7-115.4,39.6-161.1,85.3   c-45.1,45.1-74.8,100.9-84.9,159v85.3c7.4,39.2,25.4,74.1,52.9,101.7c37,37,87.3,56.7,143.5,56.7c7.6,0,15.4-0.4,23.2-1.1   c65.2-6.1,128.8-37.2,179.2-87.6C714.5,606.7,745.7,543.1,751.8,477.9z M462,737.7c-52.3,0-101.6-17.8-138.1-54.3   c-83.4-83.4-69.1-233.6,32-334.6c49.1-49.1,111-79.4,174.3-85.3c7.6-0.7,15.1-1.1,22.5-1.1c54.1,0,102.4,18.9,137.9,54.4   c83.4,83.4,69.1,233.6-32,334.6C601.6,708.3,529.3,737.7,462,737.7z" style="fill: #545454; fill-opacity: 1;"></path><path d="M265.3,392.5c15.2-27.1,34.5-52.9,58-76.3c23.3-23.3,49.2-42.9,76.7-58.3h-15.8c-23.8,14.6-46.2,32.2-66.6,52.7   c-20.3,20.3-37.8,42.5-52.3,66V392.5z" style="fill: #545454; fill-opacity: 1;"></path><path d="M703.4,257.9h-13.7c11.7,7.9,22.6,17,32.7,27.1c17,17,31,36.4,41.8,57.6v-16.7c-10-16.9-22-32.5-36.1-46.6   C720.3,271.5,712,264.4,703.4,257.9z" style="fill: #545454; fill-opacity: 1;"></path><path d="M265.3,683.1v13.8c6.4,8.5,13.4,16.5,21,24.1c13.9,13.9,29.3,25.9,46,35.8h16.7c-20.8-10.6-40-24.4-57.1-41.4   C282,705.3,273.1,694.5,265.3,683.1z" style="fill: #545454; fill-opacity: 1;"></path><path d="M764.1,596.5v-18.9c-16.9,38.7-41.6,74.9-73.1,106.4c-31.8,31.8-68,56.1-105.9,72.7h19.2c33.4-16.8,64.7-39.3,92.4-67   C724.6,661.8,747.3,630.2,764.1,596.5z" style="fill: #545454; fill-opacity: 1;"></path><path d="M288.6,281.5c8.3-8.3,16.9-16.2,25.7-23.7h-12.2c-6.5,5.8-12.9,11.8-19.1,18c-6.1,6.1-12,12.3-17.6,18.7v12.2   C272.6,298.2,280.4,289.7,288.6,281.5z" style="fill: #545454; fill-opacity: 1;"></path><path d="M764.1,674.6c-11.6,15.3-24.3,30.1-38.4,44.1c-13.9,13.9-28.5,26.5-43.6,38h13.1c12.5-10,24.6-20.8,36.2-32.4   c11.7-11.7,22.6-24,32.7-36.7V674.6z" style="fill: #545454; fill-opacity: 1;"></path><path d="M764.1,746.8c-1.7,1.7-3.4,3.5-5.1,5.2c-1.6,1.6-3.2,3.2-4.8,4.7h9.9V746.8z" style="fill: #545454; fill-opacity: 1;"></path><path d="M768.1,760.7H261.3V253.9h506.9V760.7z M269.3,752.7h490.9V261.9H269.3V752.7z" style="fill: #545454; fill-opacity: 1;"></path>\n  </g>\n</svg>
