<svg xmlns="http://www.w3.org/2000/svg" width="1600" height="900" viewBox="0 0 1600 900"><metadata id="bizarre-atlas-provenance">{"algorithm":{"name":"bizarre-atlas-single-mass","version":"1.0.0"},"aperturePathSha256":"bb4079e12e6db7bb2387dc7fbe174b3283b57d5af4d4e942e4053bd96158c9dd","apertureVersion":"continuous-lens-aperture/owner-selected-left-v2","appearance":"light","configuration":{"algorithm":{"name":"bizarre-atlas-single-mass","version":"1.0.0"},"aperture":{"pathSha256":"bb4079e12e6db7bb2387dc7fbe174b3283b57d5af4d4e942e4053bd96158c9dd","version":"continuous-lens-aperture/owner-selected-left-v2"},"dimensions":{"height":900,"width":1600},"field":{"compressionExponent":1.72,"lineWidths":{"band":14,"major":4,"minor":1,"unit":"px"},"majorInterval":5,"mass":{"x":0.69,"y":0.53},"parameters":{"apertureRadius":{"x":0.103},"asymmetry":0.22,"extent":1.1,"fieldStrength":{"far":0.1,"near":0.18},"lineCounts":{"field":27,"large":53,"medium":19,"micro":0,"small":7},"occlusionExpansion":1.02,"sampleCount":140,"spacing":0.0305,"spacingByOpticalSize":{"large":0.01525},"tiltScale":0.003}},"orientation":18,"palette":{"backgrounds":{"dark":"#0E0E0E","light":"#F9F8F2"},"neutral":{"darkMajor":"#B8B8B8","darkMinor":"#545454","lightMajor":"#545454","lightMinor":"#3D3D3D","paper":"#F9F8F2","void":"#0E0E0E"},"signal":"#C6FF24","spectrum":["#20274D","#3156A6","#4AA5AF","#5C887C","#D5A347","#C96C3E","#B64C63","#684F83"]},"render":{"appearance":"light","opticalSize":"medium","productionProfile":"screen","representation":"contour","trajectoryState":"active"},"sourceDocuments":{"atlas":{"path":"tokens/source/atlas.tokens.json","sha256":"f9ea6d70b46763a19b18d409b8009fea3b4702ce2e85db4fa7f75a4e424303be"},"capture":{"path":"tokens/source/capture.tokens.json","sha256":"9aa9800b02cef2a5aece083794bb694a5481c994782735be0c1334c116ae89ff"},"material":{"path":"tokens/source/material.tokens.json","sha256":"d9187741a039bb86cae5a7f25125cc53d16be113eb123c0e53bd9264265fdb45"},"motion":{"path":"tokens/source/motion.tokens.json","sha256":"d309baee4fc7f8a6d945814b57547bba6da10258caa48fef4778d736ec4d5e32"},"palette":{"path":"tokens/source/palette.tokens.json","sha256":"6a19e3a3fb43a93dc01905606c3005848cc77da00ae12c53f7818b226bf56a50"},"productionPolicy":{"path":"policies/production.json","sha256":"3b46d4912cb34cb657832cb53e96f0d61ad34b15c515bfa89e9b37e487442315"},"provenancePolicy":{"path":"policies/provenance.json","sha256":"aba4b407ef8022cd91860c0b2a2599c4998c78b68b5ece86a69564082efe35c9"},"rendererConfig":{"path":"packages/atlas/src/renderer-config.json","sha256":"01410a36941de6e7e5db88d414dd8a5e30e39c7c57a010b56c9761acafe79951"}}},"configurationHash":"fd866f82dd84b52f986d48c48bea27bea84fdaacd5793f120eac4e42257fb86f","fieldConfigurationHash":"18d2969f11e6232802a6ee6d4a16b4576f781d4bed10973ec385c735e4aac676","model":{"name":"single-mass-lensing-field","version":"1.0.0"},"opticalSize":"medium","orientation":18,"orientationUnit":"deg","productionProfile":"screen","representation":"contour","schemaVersion":1,"sourceIdentifier":"synthetic:bizarre-atlas-single-mass@1.0.0:18d2969f11e6232802a6ee6d4a16b4576f781d4bed10973ec385c735e4aac676","sourceType":"synthetic","trajectoryState":"active"}</metadata><rect data-layer="background" width="1600" height="900" fill="#F9F8F2"/><path data-layer="field-line" data-line-kind="major" stroke-width="4" d="M -80 229.23 L -67.429 229.255 L -54.857 229.282 L -42.286 229.311 L -29.714 229.342 L -17.143 229.375 L -4.571 229.41 L 8 229.448 L 20.571 229.488 L 33.143 229.532 L 45.714 229.579 L 58.286 229.63 L 70.857 229.685 L 83.429 229.744 L 96 229.808 L 108.571 229.878 L 121.143 229.953 L 133.714 230.034 L 146.286 230.123 L 158.857 230.218 L 171.429 230.322 L 184 230.434 L 196.571 230.556 L 209.143 230.687 L 221.714 230.83 L 234.286 230.984 L 246.857 231.15 L 259.429 231.331 L 272 231.525 L 284.571 231.735 L 297.143 231.961 L 309.714 232.205 L 322.286 232.468 L 334.857 232.75 L 347.429 233.054 L 360 233.38 L 372.571 233.73 L 385.143 234.105 L 397.714 234.507 L 410.286 234.937 L 422.857 235.396 L 435.429 235.886 L 448 236.409 L 460.571 236.965 L 473.143 237.557 L 485.714 238.187 L 498.286 238.855 L 510.857 239.564 L 523.429 240.314 L 536 241.108 L 548.571 241.946 L 561.143 242.831 L 573.714 243.764 L 586.286 244.746 L 598.857 245.778 L 611.429 246.862 L 624 247.999 L 636.571 249.19 L 649.143 250.437 L 661.714 251.739 L 674.286 253.097 L 686.857 254.513 L 699.429 255.987 L 712 257.519 L 724.571 259.11 L 737.143 260.758 L 749.714 262.466 L 762.286 264.231 L 774.857 266.053 L 787.429 267.932 L 800 269.866 L 812.571 271.853 L 825.143 273.893 L 837.714 275.983 L 850.286 278.121 L 862.857 280.302 L 875.429 282.525 L 888 284.783 L 900.571 287.074 L 913.143 289.391 L 925.714 291.728 L 938.286 294.077 L 950.857 296.43 L 963.429 298.779 L 976 301.112 L 988.571 303.418 L 1001.143 305.683 L 1013.714 307.893 L 1026.286 310.031 L 1038.857 312.08 L 1051.429 314.017 L 1064 315.819 L 1076.571 317.457 L 1089.143 318.894 L 1101.714 320.065 L 1114.286 320.786 L 1126.857 321.162 L 1139.429 321.275 L 1152 321.151 L 1164.571 320.807 L 1177.143 320.256 L 1189.714 319.51 L 1202.286 318.579 L 1214.857 317.474 L 1227.429 316.207 L 1240 314.788 L 1252.571 313.229 L 1265.143 311.541 L 1277.714 309.738 L 1290.286 307.83 L 1302.857 305.83 L 1315.429 303.751 L 1328 301.603 L 1340.571 299.399 L 1353.143 297.15 L 1365.714 294.867 L 1378.286 292.562 L 1390.857 290.243 L 1403.429 287.92 L 1416 285.603 L 1428.571 283.3 L 1441.143 281.018 L 1453.714 278.765 L 1466.286 276.546 L 1478.857 274.368 L 1491.429 272.236 L 1504 270.154 L 1516.571 268.126 L 1529.143 266.156 L 1541.714 264.246 L 1554.286 262.398 L 1566.857 260.615 L 1579.429 258.897 L 1592 257.246 L 1604.571 255.662 L 1617.143 254.145 L 1629.714 252.696 L 1642.286 251.312 L 1654.857 249.995 L 1667.429 248.742 L 1680 247.553" fill="none" stroke="#545454" stroke-opacity="0.78"/><path data-layer="field-line" data-line-kind="minor" stroke-width="1" d="M -80 256.69 L -67.429 256.716 L -54.857 256.745 L -42.286 256.775 L -29.714 256.807 L -17.143 256.842 L -4.571 256.879 L 8 256.919 L 20.571 256.963 L 33.143 257.009 L 45.714 257.059 L 58.286 257.114 L 70.857 257.172 L 83.429 257.236 L 96 257.305 L 108.571 257.379 L 121.143 257.46 L 133.714 257.548 L 146.286 257.643 L 158.857 257.746 L 171.429 257.858 L 184 257.979 L 196.571 258.11 L 209.143 258.252 L 221.714 258.406 L 234.286 258.573 L 246.857 258.754 L 259.429 258.949 L 272 259.159 L 284.571 259.387 L 297.143 259.632 L 309.714 259.897 L 322.286 260.182 L 334.857 260.488 L 347.429 260.818 L 360 261.172 L 372.571 261.552 L 385.143 261.959 L 397.714 262.396 L 410.286 262.863 L 422.857 263.361 L 435.429 263.894 L 448 264.462 L 460.571 265.067 L 473.143 265.711 L 485.714 266.395 L 498.286 267.122 L 510.857 267.892 L 523.429 268.708 L 536 269.571 L 548.571 270.484 L 561.143 271.446 L 573.714 272.461 L 586.286 273.529 L 598.857 274.652 L 611.429 275.831 L 624 277.069 L 636.571 278.364 L 649.143 279.72 L 661.714 281.137 L 674.286 282.615 L 686.857 284.156 L 699.429 285.76 L 712 287.427 L 724.571 289.158 L 737.143 290.952 L 749.714 292.81 L 762.286 294.731 L 774.857 296.714 L 787.429 298.759 L 800 300.864 L 812.571 303.027 L 825.143 305.247 L 837.714 307.522 L 850.286 309.848 L 862.857 312.223 L 875.429 314.641 L 888 317.1 L 900.571 319.593 L 913.143 322.115 L 925.714 324.658 L 938.286 327.215 L 950.857 329.777 L 963.429 332.333 L 976 334.873 L 988.571 337.382 L 1001.143 339.848 L 1013.714 342.253 L 1026.286 344.581 L 1038.857 346.81 L 1051.429 348.919 L 1064 350.88 L 1076.571 352.663 L 1089.143 354.226 L 1101.714 355.5 L 1114.286 356.284 L 1126.857 356.693 L 1139.429 356.814 L 1152 356.678 L 1164.571 356.303 L 1177.143 355.702 L 1189.714 354.888 L 1202.286 353.873 L 1214.857 352.669 L 1227.429 351.288 L 1240 349.742 L 1252.571 348.043 L 1265.143 346.205 L 1277.714 344.24 L 1290.286 342.162 L 1302.857 339.983 L 1315.429 337.717 L 1328 335.378 L 1340.571 332.977 L 1353.143 330.527 L 1365.714 328.04 L 1378.286 325.529 L 1390.857 323.003 L 1403.429 320.473 L 1416 317.949 L 1428.571 315.439 L 1441.143 312.954 L 1453.714 310.499 L 1466.286 308.082 L 1478.857 305.709 L 1491.429 303.387 L 1504 301.119 L 1516.571 298.909 L 1529.143 296.763 L 1541.714 294.682 L 1554.286 292.669 L 1566.857 290.726 L 1579.429 288.855 L 1592 287.056 L 1604.571 285.33 L 1617.143 283.678 L 1629.714 282.098 L 1642.286 280.591 L 1654.857 279.155 L 1667.429 277.79 L 1680 276.494" fill="none" stroke="#3D3D3D" stroke-opacity="0.52"/><path data-layer="field-line" data-line-kind="minor" stroke-width="1" d="M -80 284.149 L -67.429 284.177 L -54.857 284.207 L -42.286 284.239 L -29.714 284.273 L -17.143 284.309 L -4.571 284.349 L 8 284.391 L 20.571 284.437 L 33.143 284.486 L 45.714 284.54 L 58.286 284.597 L 70.857 284.66 L 83.429 284.728 L 96 284.801 L 108.571 284.881 L 121.143 284.967 L 133.714 285.061 L 146.286 285.163 L 158.857 285.273 L 171.429 285.393 L 184 285.523 L 196.571 285.664 L 209.143 285.817 L 221.714 285.983 L 234.286 286.162 L 246.857 286.357 L 259.429 286.567 L 272 286.793 L 284.571 287.039 L 297.143 287.303 L 309.714 287.588 L 322.286 287.895 L 334.857 288.226 L 347.429 288.582 L 360 288.964 L 372.571 289.374 L 385.143 289.814 L 397.714 290.285 L 410.286 290.788 L 422.857 291.327 L 435.429 291.902 L 448 292.516 L 460.571 293.169 L 473.143 293.865 L 485.714 294.604 L 498.286 295.389 L 510.857 296.221 L 523.429 297.103 L 536 298.035 L 548.571 299.021 L 561.143 300.061 L 573.714 301.158 L 586.286 302.312 L 598.857 303.526 L 611.429 304.801 L 624 306.138 L 636.571 307.538 L 649.143 309.004 L 661.714 310.535 L 674.286 312.133 L 686.857 313.799 L 699.429 315.533 L 712 317.335 L 724.571 319.206 L 737.143 321.146 L 749.714 323.154 L 762.286 325.231 L 774.857 327.375 L 787.429 329.586 L 800 331.862 L 812.571 334.201 L 825.143 336.601 L 837.714 339.061 L 850.286 341.576 L 862.857 344.143 L 875.429 346.758 L 888 349.417 L 900.571 352.113 L 913.143 354.839 L 925.714 357.589 L 938.286 360.354 L 950.857 363.124 L 963.429 365.888 L 976 368.633 L 988.571 371.347 L 1001.143 374.013 L 1013.714 376.614 L 1026.286 379.13 L 1038.857 381.541 L 1051.429 383.82 L 1064 385.941 L 1076.571 387.868 L 1089.143 389.558 L 1101.714 390.935 L 1114.286 391.782 L 1126.857 392.223 L 1139.429 392.354 L 1152 392.206 L 1164.571 391.798 L 1177.143 391.147 L 1189.714 390.266 L 1202.286 389.167 L 1214.857 387.864 L 1227.429 386.369 L 1240 384.696 L 1252.571 382.858 L 1265.143 380.869 L 1277.714 378.742 L 1290.286 376.493 L 1302.857 374.136 L 1315.429 371.684 L 1328 369.153 L 1340.571 366.555 L 1353.143 363.904 L 1365.714 361.213 L 1378.286 358.496 L 1390.857 355.762 L 1403.429 353.025 L 1416 350.294 L 1428.571 347.579 L 1441.143 344.889 L 1453.714 342.233 L 1466.286 339.618 L 1478.857 337.051 L 1491.429 334.538 L 1504 332.083 L 1516.571 329.693 L 1529.143 327.37 L 1541.714 325.118 L 1554.286 322.94 L 1566.857 320.838 L 1579.429 318.813 L 1592 316.866 L 1604.571 314.999 L 1617.143 313.21 L 1629.714 311.5 L 1642.286 309.869 L 1654.857 308.315 L 1667.429 306.838 L 1680 305.435" fill="none" stroke="#3D3D3D" stroke-opacity="0.52"/><path data-layer="field-line" data-line-kind="minor" stroke-width="1" d="M -80 311.609 L -67.429 311.638 L -54.857 311.669 L -42.286 311.703 L -29.714 311.738 L -17.143 311.777 L -4.571 311.818 L 8 311.863 L 20.571 311.911 L 33.143 311.963 L 45.714 312.02 L 58.286 312.081 L 70.857 312.147 L 83.429 312.219 L 96 312.297 L 108.571 312.382 L 121.143 312.474 L 133.714 312.574 L 146.286 312.683 L 158.857 312.801 L 171.429 312.929 L 184 313.068 L 196.571 313.219 L 209.143 313.382 L 221.714 313.56 L 234.286 313.752 L 246.857 313.96 L 259.429 314.185 L 272 314.428 L 284.571 314.69 L 297.143 314.974 L 309.714 315.28 L 322.286 315.609 L 334.857 315.964 L 347.429 316.346 L 360 316.756 L 372.571 317.196 L 385.143 317.668 L 397.714 318.173 L 410.286 318.714 L 422.857 319.293 L 435.429 319.91 L 448 320.569 L 460.571 321.271 L 473.143 322.018 L 485.714 322.812 L 498.286 323.656 L 510.857 324.55 L 523.429 325.497 L 536 326.499 L 548.571 327.558 L 561.143 328.676 L 573.714 329.854 L 586.286 331.095 L 598.857 332.4 L 611.429 333.77 L 624 335.207 L 636.571 336.712 L 649.143 338.288 L 661.714 339.934 L 674.286 341.651 L 686.857 343.442 L 699.429 345.306 L 712 347.243 L 724.571 349.254 L 737.143 351.34 L 749.714 353.499 L 762.286 355.731 L 774.857 358.037 L 787.429 360.413 L 800 362.86 L 812.571 365.374 L 825.143 367.955 L 837.714 370.599 L 850.286 373.303 L 862.857 376.064 L 875.429 378.875 L 888 381.734 L 900.571 384.632 L 913.143 387.563 L 925.714 390.52 L 938.286 393.493 L 950.857 396.471 L 963.429 399.442 L 976 402.394 L 988.571 405.312 L 1001.143 408.178 L 1013.714 410.974 L 1026.286 413.68 L 1038.857 416.271" fill="none" stroke="#3D3D3D" stroke-opacity="0.52"/><path data-layer="field-line" data-line-kind="minor" stroke-width="1" d="M 1265.143 415.532 L 1277.714 413.245 L 1290.286 410.825 L 1302.857 408.289 L 1315.429 405.651 L 1328 402.927 L 1340.571 400.133 L 1353.143 397.281 L 1365.714 394.386 L 1378.286 391.463 L 1390.857 388.522 L 1403.429 385.577 L 1416 382.639 L 1428.571 379.719 L 1441.143 376.825 L 1453.714 373.968 L 1466.286 371.154 L 1478.857 368.392 L 1491.429 365.688 L 1504 363.048 L 1516.571 360.476 L 1529.143 357.977 L 1541.714 355.555 L 1554.286 353.211 L 1566.857 350.949 L 1579.429 348.771 L 1592 346.676 L 1604.571 344.667 L 1617.143 342.742 L 1629.714 340.903 L 1642.286 339.147 L 1654.857 337.475 L 1667.429 335.886 L 1680 334.376" fill="none" stroke="#3D3D3D" stroke-opacity="0.52"/><path data-layer="field-line" data-line-kind="minor" stroke-width="1" d="M -80 339.069 L -67.429 339.099 L -54.857 339.131 L -42.286 339.166 L -29.714 339.204 L -17.143 339.244 L -4.571 339.288 L 8 339.335 L 20.571 339.385 L 33.143 339.44 L 45.714 339.5 L 58.286 339.565 L 70.857 339.635 L 83.429 339.711 L 96 339.794 L 108.571 339.884 L 121.143 339.981 L 133.714 340.088 L 146.286 340.203 L 158.857 340.329 L 171.429 340.465 L 184 340.613 L 196.571 340.773 L 209.143 340.947 L 221.714 341.136 L 234.286 341.341 L 246.857 341.563 L 259.429 341.803 L 272 342.062 L 284.571 342.342 L 297.143 342.645 L 309.714 342.971 L 322.286 343.323 L 334.857 343.702 L 347.429 344.109 L 360 344.547 L 372.571 345.018 L 385.143 345.522 L 397.714 346.062 L 410.286 346.64 L 422.857 347.258 L 435.429 347.919 L 448 348.623 L 460.571 349.373 L 473.143 350.172 L 485.714 351.021 L 498.286 351.922 L 510.857 352.879 L 523.429 353.892 L 536 354.963 L 548.571 356.096 L 561.143 357.291 L 573.714 358.551 L 586.286 359.878 L 598.857 361.273 L 611.429 362.739 L 624 364.276 L 636.571 365.886 L 649.143 367.571 L 661.714 369.332 L 674.286 371.169 L 686.857 373.085 L 699.429 375.078 L 712 377.151 L 724.571 379.303 L 737.143 381.534 L 749.714 383.843 L 762.286 386.232 L 774.857 388.698 L 787.429 391.24 L 800 393.858 L 812.571 396.548 L 825.143 399.309 L 837.714 402.138 L 850.286 405.031 L 862.857 407.984 L 875.429 410.992 L 888 414.05 L 900.571 417.151 L 913.143 420.288 L 925.714 423.451 L 938.286 426.631 L 950.857 429.817 L 963.429 432.997 L 976 436.155 L 988.571 439.276" fill="none" stroke="#3D3D3D" stroke-opacity="0.52"/><path data-layer="field-line" data-line-kind="minor" stroke-width="1" d="M 1277.714 447.747 L 1290.286 445.156 L 1302.857 442.441 L 1315.429 439.618 L 1328 436.702 L 1340.571 433.711 L 1353.143 430.658 L 1365.714 427.559 L 1378.286 424.43 L 1390.857 421.282 L 1403.429 418.13 L 1416 414.985 L 1428.571 411.858 L 1441.143 408.761 L 1453.714 405.702 L 1466.286 402.69 L 1478.857 399.734 L 1491.429 396.839 L 1504 394.013 L 1516.571 391.26 L 1529.143 388.585 L 1541.714 385.991 L 1554.286 383.482 L 1566.857 381.061 L 1579.429 378.729 L 1592 376.486 L 1604.571 374.335 L 1617.143 372.275 L 1629.714 370.305 L 1642.286 368.426 L 1654.857 366.636 L 1667.429 364.933 L 1680 363.317" fill="none" stroke="#3D3D3D" stroke-opacity="0.52"/><path data-layer="field-line" data-line-kind="major" stroke-width="4" d="M -80 366.528 L -67.429 366.56 L -54.857 366.594 L -42.286 366.63 L -29.714 366.669 L -17.143 366.711 L -4.571 366.757 L 8 366.806 L 20.571 366.86 L 33.143 366.917 L 45.714 366.98 L 58.286 367.048 L 70.857 367.122 L 83.429 367.203 L 96 367.29 L 108.571 367.385 L 121.143 367.489 L 133.714 367.601 L 146.286 367.723 L 158.857 367.856 L 171.429 368 L 184 368.157 L 196.571 368.328 L 209.143 368.512 L 221.714 368.713 L 234.286 368.93 L 246.857 369.166 L 259.429 369.421 L 272 369.696 L 284.571 369.994 L 297.143 370.316 L 309.714 370.663 L 322.286 371.037 L 334.857 371.44 L 347.429 371.873 L 360 372.339 L 372.571 372.839 L 385.143 373.376 L 397.714 373.951 L 410.286 374.566 L 422.857 375.224 L 435.429 375.927 L 448 376.676 L 460.571 377.475 L 473.143 378.326 L 485.714 379.229 L 498.286 380.189 L 510.857 381.207 L 523.429 382.286 L 536 383.427 L 548.571 384.633 L 561.143 385.906 L 573.714 387.248 L 586.286 388.661 L 598.857 390.147 L 611.429 391.708 L 624 393.345 L 636.571 395.06 L 649.143 396.855 L 661.714 398.73 L 674.286 400.688 L 686.857 402.728 L 699.429 404.851 L 712 407.059 L 724.571 409.351 L 737.143 411.727 L 749.714 414.188 L 762.286 416.732 L 774.857 419.359 L 787.429 422.067 L 800 424.856 L 812.571 427.722 L 825.143 430.663 L 837.714 433.677 L 850.286 436.759 L 862.857 439.905 L 875.429 443.109 L 888 446.367 L 900.571 449.67 L 913.143 453.012 L 925.714 456.382 L 938.286 459.77 L 950.857 463.164" fill="none" stroke="#545454" stroke-opacity="0.78"/><path data-layer="field-line" data-line-kind="major" stroke-width="4" d="M 1252.571 487.302 L 1265.143 484.859 L 1277.714 482.249 L 1290.286 479.488 L 1302.857 476.594 L 1315.429 473.585 L 1328 470.477 L 1340.571 467.288 L 1353.143 464.035 L 1365.714 460.733 L 1378.286 457.397 L 1390.857 454.042 L 1403.429 450.682 L 1416 447.33 L 1428.571 443.998 L 1441.143 440.696 L 1453.714 437.436 L 1466.286 434.226 L 1478.857 431.075 L 1491.429 427.99 L 1504 424.977 L 1516.571 422.043 L 1529.143 419.192 L 1541.714 416.427 L 1554.286 413.754 L 1566.857 411.173 L 1579.429 408.686 L 1592 406.296 L 1604.571 404.003 L 1617.143 401.807 L 1629.714 399.707 L 1642.286 397.704 L 1654.857 395.796 L 1667.429 393.981 L 1680 392.258" fill="none" stroke="#545454" stroke-opacity="0.78"/><path data-layer="field-line" data-line-kind="minor" stroke-width="1" d="M -80 393.988 L -67.429 394.021 L -54.857 394.056 L -42.286 394.094 L -29.714 394.135 L -17.143 394.179 L -4.571 394.226 L 8 394.278 L 20.571 394.334 L 33.143 394.395 L 45.714 394.46 L 58.286 394.532 L 70.857 394.61 L 83.429 394.694 L 96 394.787 L 108.571 394.887 L 121.143 394.996 L 133.714 395.114 L 146.286 395.243 L 158.857 395.384 L 171.429 395.536 L 184 395.702 L 196.571 395.882 L 209.143 396.078 L 221.714 396.29 L 234.286 396.52 L 246.857 396.769 L 259.429 397.039 L 272 397.33 L 284.571 397.646 L 297.143 397.987 L 309.714 398.354 L 322.286 398.751 L 334.857 399.178 L 347.429 399.637 L 360 400.131 L 372.571 400.661 L 385.143 401.23 L 397.714 401.84 L 410.286 402.492 L 422.857 403.19 L 435.429 403.935 L 448 404.73 L 460.571 405.577 L 473.143 406.479 L 485.714 407.438 L 498.286 408.456 L 510.857 409.536 L 523.429 410.68 L 536 411.891 L 548.571 413.171 L 561.143 414.521 L 573.714 415.945 L 586.286 417.444 L 598.857 419.021 L 611.429 420.677 L 624 422.414 L 636.571 424.234 L 649.143 426.139 L 661.714 428.129 L 674.286 430.206 L 686.857 432.371 L 699.429 434.624 L 712 436.967 L 724.571 439.399 L 737.143 441.921 L 749.714 444.532 L 762.286 447.232 L 774.857 450.02 L 787.429 452.895 L 800 455.854 L 812.571 458.896 L 825.143 462.017 L 837.714 465.215 L 850.286 468.486 L 862.857 471.825 L 875.429 475.226 L 888 478.684 L 900.571 482.19 L 913.143 485.736 L 925.714 489.312 L 938.286 492.908" fill="none" stroke="#3D3D3D" stroke-opacity="0.52"/><path data-layer="field-line" data-line-kind="minor" stroke-width="1" d="M 1177.143 532.93 L 1189.714 531.779 L 1202.286 530.345 L 1214.857 528.645 L 1227.429 526.695 L 1240 524.513 L 1252.571 522.116 L 1265.143 519.523 L 1277.714 516.751 L 1290.286 513.82 L 1302.857 510.747 L 1315.429 507.552 L 1328 504.252 L 1340.571 500.866 L 1353.143 497.412 L 1365.714 493.906 L 1378.286 490.364 L 1390.857 486.802 L 1403.429 483.234 L 1416 479.675 L 1428.571 476.137 L 1441.143 472.632 L 1453.714 469.17 L 1466.286 465.762 L 1478.857 462.417 L 1491.429 459.141 L 1504 455.942 L 1516.571 452.826 L 1529.143 449.799 L 1541.714 446.864 L 1554.286 444.025 L 1566.857 441.284 L 1579.429 438.644 L 1592 436.106 L 1604.571 433.671 L 1617.143 431.339 L 1629.714 429.11 L 1642.286 426.982 L 1654.857 424.956 L 1667.429 423.029 L 1680 421.199" fill="none" stroke="#3D3D3D" stroke-opacity="0.52"/><path data-layer="field-line" data-line-kind="minor" stroke-width="1" d="M -80 421.448 L -67.429 421.482 L -54.857 421.518 L -42.286 421.558 L -29.714 421.6 L -17.143 421.646 L -4.571 421.696 L 8 421.75 L 20.571 421.808 L 33.143 421.872 L 45.714 421.941 L 58.286 422.016 L 70.857 422.097 L 83.429 422.186 L 96 422.283 L 108.571 422.388 L 121.143 422.503 L 133.714 422.628 L 146.286 422.763 L 158.857 422.911 L 171.429 423.072 L 184 423.247 L 196.571 423.436 L 209.143 423.643 L 221.714 423.866 L 234.286 424.109 L 246.857 424.372 L 259.429 424.657 L 272 424.965 L 284.571 425.298 L 297.143 425.658 L 309.714 426.046 L 322.286 426.465 L 334.857 426.916 L 347.429 427.401 L 360 427.923 L 372.571 428.483 L 385.143 429.084 L 397.714 429.728 L 410.286 430.418 L 422.857 431.155 L 435.429 431.943 L 448 432.784 L 460.571 433.679 L 473.143 434.633 L 485.714 435.646 L 498.286 436.723 L 510.857 437.865 L 523.429 439.075 L 536 440.355 L 548.571 441.708 L 561.143 443.136 L 573.714 444.642 L 586.286 446.227 L 598.857 447.895 L 611.429 449.646 L 624 451.483 L 636.571 453.408 L 649.143 455.422 L 661.714 457.527 L 674.286 459.724 L 686.857 462.013 L 699.429 464.397 L 712 466.875 L 724.571 469.447 L 737.143 472.115 L 749.714 474.877 L 762.286 477.733 L 774.857 480.681 L 787.429 483.722 L 800 486.852 L 812.571 490.069 L 825.143 493.371 L 837.714 496.754 L 850.286 500.214 L 862.857 503.746 L 875.429 507.343 L 888 511 L 900.571 514.709 L 913.143 518.46 L 925.714 522.243 L 938.286 526.047" fill="none" stroke="#3D3D3D" stroke-opacity="0.52"/><path data-layer="field-line" data-line-kind="minor" stroke-width="1" d="M 1064 561.244 L 1076.571 563.894 L 1089.143 566.217 L 1101.714 568.109 L 1114.286 569.272 L 1126.857 569.875 L 1139.429 570.051 L 1152 569.842 L 1164.571 569.277 L 1177.143 568.375 L 1189.714 567.157 L 1202.286 565.64 L 1214.857 563.84 L 1227.429 561.777 L 1240 559.467 L 1252.571 556.931 L 1265.143 554.187 L 1277.714 551.253 L 1290.286 548.151 L 1302.857 544.9 L 1315.429 541.519 L 1328 538.027 L 1340.571 534.444 L 1353.143 530.789 L 1365.714 527.079 L 1378.286 523.331 L 1390.857 519.562 L 1403.429 515.787 L 1416 512.021 L 1428.571 508.277 L 1441.143 504.568 L 1453.714 500.905 L 1466.286 497.298 L 1478.857 493.758 L 1491.429 490.292 L 1504 486.907 L 1516.571 483.61 L 1529.143 480.406 L 1541.714 477.3 L 1554.286 474.296 L 1566.857 471.396 L 1579.429 468.602 L 1592 465.916 L 1604.571 463.339 L 1617.143 460.871 L 1629.714 458.512 L 1642.286 456.261 L 1654.857 454.116 L 1667.429 452.077 L 1680 450.14" fill="none" stroke="#3D3D3D" stroke-opacity="0.52"/><path data-layer="field-line" data-line-kind="minor" stroke-width="1" d="M -80 448.908 L -67.429 448.943 L -54.857 448.981 L -42.286 449.021 L -29.714 449.066 L -17.143 449.113 L -4.571 449.165 L 8 449.221 L 20.571 449.282 L 33.143 449.349 L 45.714 449.421 L 58.286 449.499 L 70.857 449.585 L 83.429 449.678 L 96 449.779 L 108.571 449.89 L 121.143 450.01 L 133.714 450.141 L 146.286 450.284 L 158.857 450.439 L 171.429 450.608 L 184 450.791 L 196.571 450.991 L 209.143 451.208 L 221.714 451.443 L 234.286 451.698 L 246.857 451.975 L 259.429 452.275 L 272 452.599 L 284.571 452.95 L 297.143 453.328 L 309.714 453.737 L 322.286 454.178 L 334.857 454.653 L 347.429 455.165 L 360 455.714 L 372.571 456.305 L 385.143 456.938 L 397.714 457.617 L 410.286 458.344 L 422.857 459.121 L 435.429 459.951 L 448 460.837 L 460.571 461.781 L 473.143 462.786 L 485.714 463.855 L 498.286 464.99 L 510.857 466.194 L 523.429 467.469 L 536 468.819 L 548.571 470.245 L 561.143 471.751 L 573.714 473.339 L 586.286 475.01 L 598.857 476.769 L 611.429 478.615 L 624 480.552 L 636.571 482.582 L 649.143 484.706 L 661.714 486.925 L 674.286 489.242 L 686.857 491.656 L 699.429 494.17 L 712 496.783 L 724.571 499.496 L 737.143 502.309 L 749.714 505.221 L 762.286 508.233 L 774.857 511.343 L 787.429 514.549 L 800 517.85 L 812.571 521.243 L 825.143 524.725 L 837.714 528.293 L 850.286 531.942 L 862.857 535.666 L 875.429 539.46 L 888 543.317 L 900.571 547.228 L 913.143 551.184 L 925.714 555.174 L 938.286 559.185 L 950.857 563.204 L 963.429 567.214 L 976 571.198 L 988.571 575.135 L 1001.143 579.003 L 1013.714 582.776 L 1026.286 586.427 L 1038.857 589.923 L 1051.429 593.23 L 1064 596.305 L 1076.571 599.1 L 1089.143 601.549 L 1101.714 603.544 L 1114.286 604.77 L 1126.857 605.405 L 1139.429 605.59 L 1152 605.369 L 1164.571 604.772 L 1177.143 603.821 L 1189.714 602.535 L 1202.286 600.934 L 1214.857 599.035 L 1227.429 596.858 L 1240 594.422 L 1252.571 591.746 L 1265.143 588.85 L 1277.714 585.756 L 1290.286 582.483 L 1302.857 579.053 L 1315.429 575.485 L 1328 571.802 L 1340.571 568.022 L 1353.143 564.166 L 1365.714 560.252 L 1378.286 556.298 L 1390.857 552.321 L 1403.429 548.339 L 1416 544.366 L 1428.571 540.416 L 1441.143 536.503 L 1453.714 532.639 L 1466.286 528.834 L 1478.857 525.099 L 1491.429 521.442 L 1504 517.872 L 1516.571 514.393 L 1529.143 511.013 L 1541.714 507.737 L 1554.286 504.567 L 1566.857 501.507 L 1579.429 498.56 L 1592 495.726 L 1604.571 493.007 L 1617.143 490.404 L 1629.714 487.914 L 1642.286 485.539 L 1654.857 483.276 L 1667.429 481.124 L 1680 479.081" fill="none" stroke="#3D3D3D" stroke-opacity="0.52"/><path data-layer="field-line" data-line-kind="minor" stroke-width="1" d="M -80 475.974 L -67.429 475.961 L -54.857 475.946 L -42.286 475.927 L -29.714 475.905 L -17.143 475.879 L -4.571 475.849 L 8 475.814 L 20.571 475.774 L 33.143 475.729 L 45.714 475.677 L 58.286 475.619 L 70.857 475.553 L 83.429 475.48 L 96 475.397 L 108.571 475.305 L 121.143 475.203 L 133.714 475.09 L 146.286 474.964 L 158.857 474.825 L 171.429 474.672 L 184 474.503 L 196.571 474.317 L 209.143 474.114 L 221.714 473.89 L 234.286 473.646 L 246.857 473.379 L 259.429 473.088 L 272 472.772 L 284.571 472.427 L 297.143 472.053 L 309.714 471.647 L 322.286 471.207 L 334.857 470.732 L 347.429 470.218 L 360 469.664 L 372.571 469.068 L 385.143 468.426 L 397.714 467.736 L 410.286 466.996 L 422.857 466.202 L 435.429 465.353 L 448 464.446 L 460.571 463.477 L 473.143 462.444 L 485.714 461.344 L 498.286 460.175 L 510.857 458.933 L 523.429 457.615 L 536 456.22 L 548.571 454.743 L 561.143 453.184 L 573.714 451.538 L 586.286 449.804 L 598.857 447.978 L 611.429 446.06 L 624 444.047 L 636.571 441.936 L 649.143 439.726 L 661.714 437.416 L 674.286 435.003 L 686.857 432.488 L 699.429 429.868 L 712 427.143 L 724.571 424.314 L 737.143 421.379 L 749.714 418.339 L 762.286 415.196 L 774.857 411.949 L 787.429 408.6 L 800 405.152 L 812.571 401.607 L 825.143 397.968 L 837.714 394.24 L 850.286 390.426 L 862.857 386.532 L 875.429 382.565 L 888 378.532 L 900.571 374.442 L 913.143 370.305 L 925.714 366.132 L 938.286 361.937 L 950.857 357.733 L 963.429 353.539 L 976 349.373 L 988.571 345.256 L 1001.143 341.212 L 1013.714 337.267 L 1026.286 333.451 L 1038.857 329.797 L 1051.429 326.343 L 1064 323.132 L 1076.571 320.216 L 1089.143 317.664 L 1101.714 315.59 L 1114.286 314.325 L 1126.857 313.681 L 1139.429 313.511 L 1152 313.767 L 1164.571 314.419 L 1177.143 315.444 L 1189.714 316.821 L 1202.286 318.53 L 1214.857 320.552 L 1227.429 322.866 L 1240 325.453 L 1252.571 328.293 L 1265.143 331.363 L 1277.714 334.643 L 1290.286 338.11 L 1302.857 341.743 L 1315.429 345.519 L 1328 349.418 L 1340.571 353.419 L 1353.143 357.5 L 1365.714 361.642 L 1378.286 365.825 L 1390.857 370.032 L 1403.429 374.246 L 1416 378.45 L 1428.571 382.629 L 1441.143 386.769 L 1453.714 390.859 L 1466.286 394.885 L 1478.857 398.839 L 1491.429 402.71 L 1504 406.491 L 1516.571 410.174 L 1529.143 413.754 L 1541.714 417.225 L 1554.286 420.584 L 1566.857 423.827 L 1579.429 426.952 L 1592 429.957 L 1604.571 432.841 L 1617.143 435.604 L 1629.714 438.247 L 1642.286 440.77 L 1654.857 443.175 L 1667.429 445.463 L 1680 447.637" fill="none" stroke="#3D3D3D" stroke-opacity="0.52"/><path data-layer="field-line" data-line-kind="major" stroke-width="4" d="M -80 503.434 L -67.429 503.422 L -54.857 503.408 L -42.286 503.391 L -29.714 503.37 L -17.143 503.346 L -4.571 503.318 L 8 503.286 L 20.571 503.248 L 33.143 503.206 L 45.714 503.157 L 58.286 503.103 L 70.857 503.041 L 83.429 502.971 L 96 502.894 L 108.571 502.807 L 121.143 502.71 L 133.714 502.603 L 146.286 502.484 L 158.857 502.353 L 171.429 502.208 L 184 502.048 L 196.571 501.872 L 209.143 501.679 L 221.714 501.467 L 234.286 501.235 L 246.857 500.982 L 259.429 500.706 L 272 500.406 L 284.571 500.079 L 297.143 499.724 L 309.714 499.338 L 322.286 498.921 L 334.857 498.47 L 347.429 497.982 L 360 497.456 L 372.571 496.889 L 385.143 496.28 L 397.714 495.625 L 410.286 494.921 L 422.857 494.168 L 435.429 493.361 L 448 492.499 L 460.571 491.579 L 473.143 490.598 L 485.714 489.553 L 498.286 488.441 L 510.857 487.261 L 523.429 486.01 L 536 484.684 L 548.571 483.281 L 561.143 481.799 L 573.714 480.235 L 586.286 478.587 L 598.857 476.852 L 611.429 475.029 L 624 473.116 L 636.571 471.11 L 649.143 469.01 L 661.714 466.814 L 674.286 464.521 L 686.857 462.13 L 699.429 459.641 L 712 457.051 L 724.571 454.362 L 737.143 451.573 L 749.714 448.684 L 762.286 445.696 L 774.857 442.61 L 787.429 439.427 L 800 436.15 L 812.571 432.781 L 825.143 429.322 L 837.714 425.778 L 850.286 422.153 L 862.857 418.452 L 875.429 414.682 L 888 410.849 L 900.571 406.961 L 913.143 403.029 L 925.714 399.063 L 938.286 395.075 L 950.857 391.08 L 963.429 387.094 L 976 383.134 L 988.571 379.22 L 1001.143 375.376 L 1013.714 371.627 L 1026.286 368 L 1038.857 364.527 L 1051.429 361.244 L 1064 358.193 L 1076.571 355.422 L 1089.143 352.996 L 1101.714 351.025 L 1114.286 349.822 L 1126.857 349.211 L 1139.429 349.05 L 1152 349.294 L 1164.571 349.915 L 1177.143 350.89 L 1189.714 352.199 L 1202.286 353.824 L 1214.857 355.747 L 1227.429 357.948 L 1240 360.408 L 1252.571 363.107 L 1265.143 366.027 L 1277.714 369.145 L 1290.286 372.441 L 1302.857 375.895 L 1315.429 379.486 L 1328 383.193 L 1340.571 386.997 L 1353.143 390.877 L 1365.714 394.815 L 1378.286 398.792 L 1390.857 402.792 L 1403.429 406.798 L 1416 410.795 L 1428.571 414.768 L 1441.143 418.705 L 1453.714 422.593 L 1466.286 426.421 L 1478.857 430.18 L 1491.429 433.861 L 1504 437.455 L 1516.571 440.957 L 1529.143 444.361 L 1541.714 447.662 L 1554.286 450.855 L 1566.857 453.938 L 1579.429 456.909 L 1592 459.767 L 1604.571 462.509 L 1617.143 465.137 L 1629.714 467.65 L 1642.286 470.049 L 1654.857 472.335 L 1667.429 474.511 L 1680 476.578" fill="none" stroke="#545454" stroke-opacity="0.78"/><path data-layer="field-line" data-line-kind="minor" stroke-width="1" d="M -80 530.893 L -67.429 530.883 L -54.857 530.87 L -42.286 530.855 L -29.714 530.836 L -17.143 530.814 L -4.571 530.788 L 8 530.757 L 20.571 530.723 L 33.143 530.683 L 45.714 530.638 L 58.286 530.586 L 70.857 530.528 L 83.429 530.463 L 96 530.39 L 108.571 530.308 L 121.143 530.218 L 133.714 530.116 L 146.286 530.004 L 158.857 529.88 L 171.429 529.743 L 184 529.592 L 196.571 529.426 L 209.143 529.244 L 221.714 529.044 L 234.286 528.825 L 246.857 528.586 L 259.429 528.324 L 272 528.04 L 284.571 527.731 L 297.143 527.395 L 309.714 527.03 L 322.286 526.635 L 334.857 526.208 L 347.429 525.746 L 360 525.248 L 372.571 524.711 L 385.143 524.134 L 397.714 523.513 L 410.286 522.847 L 422.857 522.134 L 435.429 521.37 L 448 520.553 L 460.571 519.681 L 473.143 518.751 L 485.714 517.761 L 498.286 516.708 L 510.857 515.59 L 523.429 514.404 L 536 513.147 L 548.571 511.818 L 561.143 510.414 L 573.714 508.932 L 586.286 507.37 L 598.857 505.726 L 611.429 503.998 L 624 502.185 L 636.571 500.284 L 649.143 498.293 L 661.714 496.212 L 674.286 494.039 L 686.857 491.773 L 699.429 489.414 L 712 486.959 L 724.571 484.41 L 737.143 481.767 L 749.714 479.028 L 762.286 476.196 L 774.857 473.271 L 787.429 470.254 L 800 467.148 L 812.571 463.954 L 825.143 460.676 L 837.714 457.317 L 850.286 453.881 L 862.857 450.373 L 875.429 446.799 L 888 443.165 L 900.571 439.481 L 913.143 435.753 L 925.714 431.994 L 938.286 428.214 L 950.857 424.427 L 963.429 420.648 L 976 416.894 L 988.571 413.185 L 1001.143 409.541 L 1013.714 405.987 L 1026.286 402.549 L 1038.857 399.258 L 1051.429 396.146 L 1064 393.253 L 1076.571 390.627 L 1089.143 388.328 L 1101.714 386.459 L 1114.286 385.32 L 1126.857 384.741 L 1139.429 384.589 L 1152 384.821 L 1164.571 385.411 L 1177.143 386.335 L 1189.714 387.577 L 1202.286 389.119 L 1214.857 390.942 L 1227.429 393.029 L 1240 395.362 L 1252.571 397.922 L 1265.143 400.69 L 1277.714 403.647 L 1290.286 406.773 L 1302.857 410.048 L 1315.429 413.453 L 1328 416.968 L 1340.571 420.575 L 1353.143 424.254 L 1365.714 427.988 L 1378.286 431.759 L 1390.857 435.552 L 1403.429 439.351 L 1416 443.14 L 1428.571 446.908 L 1441.143 450.641 L 1453.714 454.327 L 1466.286 457.958 L 1478.857 461.522 L 1491.429 465.012 L 1504 468.42 L 1516.571 471.741 L 1529.143 474.968 L 1541.714 478.098 L 1554.286 481.126 L 1566.857 484.05 L 1579.429 486.867 L 1592 489.577 L 1604.571 492.177 L 1617.143 494.669 L 1629.714 497.052 L 1642.286 499.327 L 1654.857 501.495 L 1667.429 503.559 L 1680 505.519" fill="none" stroke="#3D3D3D" stroke-opacity="0.52"/><path data-layer="field-line" data-line-kind="minor" stroke-width="1" d="M -80 558.353 L -67.429 558.344 L -54.857 558.333 L -42.286 558.318 L -29.714 558.301 L -17.143 558.281 L -4.571 558.257 L 8 558.229 L 20.571 558.197 L 33.143 558.16 L 45.714 558.118 L 58.286 558.07 L 70.857 558.016 L 83.429 557.955 L 96 557.886 L 108.571 557.81 L 121.143 557.725 L 133.714 557.63 L 146.286 557.524 L 158.857 557.408 L 171.429 557.279 L 184 557.137 L 196.571 556.981 L 209.143 556.809 L 221.714 556.62 L 234.286 556.414 L 246.857 556.189 L 259.429 555.942 L 272 555.674 L 284.571 555.383 L 297.143 555.065 L 309.714 554.722 L 322.286 554.349 L 334.857 553.946 L 347.429 553.51 L 360 553.04 L 372.571 552.533 L 385.143 551.988 L 397.714 551.402 L 410.286 550.773 L 422.857 550.099 L 435.429 549.378 L 448 548.606 L 460.571 547.783 L 473.143 546.905 L 485.714 545.97 L 498.286 544.975 L 510.857 543.919 L 523.429 542.798 L 536 541.611 L 548.571 540.356 L 561.143 539.029 L 573.714 537.628 L 586.286 536.153 L 598.857 534.6 L 611.429 532.968 L 624 531.254 L 636.571 529.458 L 649.143 527.577 L 661.714 525.611 L 674.286 523.557 L 686.857 521.416 L 699.429 519.186 L 712 516.867 L 724.571 514.459 L 737.143 511.96 L 749.714 509.373 L 762.286 506.697 L 774.857 503.932 L 787.429 501.082 L 800 498.146 L 812.571 495.128 L 825.143 492.03 L 837.714 488.856 L 850.286 485.608 L 862.857 482.293 L 875.429 478.916 L 888 475.482 L 900.571 472 L 913.143 468.477 L 925.714 464.925 L 938.286 461.352 L 950.857 457.774 L 963.429 454.203 L 976 450.655" fill="none" stroke="#3D3D3D" stroke-opacity="0.52"/><path data-layer="field-line" data-line-kind="minor" stroke-width="1" d="M 1265.143 435.354 L 1277.714 438.149 L 1290.286 441.104 L 1302.857 444.201 L 1315.429 447.42 L 1328 450.743 L 1340.571 454.153 L 1353.143 457.631 L 1365.714 461.161 L 1378.286 464.726 L 1390.857 468.312 L 1403.429 471.903 L 1416 475.486 L 1428.571 479.048 L 1441.143 482.576 L 1453.714 486.062 L 1466.286 489.494 L 1478.857 492.863 L 1491.429 496.163 L 1504 499.385 L 1516.571 502.524 L 1529.143 505.575 L 1541.714 508.534 L 1554.286 511.397 L 1566.857 514.161 L 1579.429 516.825 L 1592 519.387 L 1604.571 521.845 L 1617.143 524.201 L 1629.714 526.454 L 1642.286 528.605 L 1654.857 530.655 L 1667.429 532.606 L 1680 534.46" fill="none" stroke="#3D3D3D" stroke-opacity="0.52"/><path data-layer="field-line" data-line-kind="minor" stroke-width="1" d="M -80 585.813 L -67.429 585.805 L -54.857 585.795 L -42.286 585.782 L -29.714 585.767 L -17.143 585.748 L -4.571 585.726 L 8 585.701 L 20.571 585.671 L 33.143 585.637 L 45.714 585.598 L 58.286 585.554 L 70.857 585.503 L 83.429 585.447 L 96 585.383 L 108.571 585.311 L 121.143 585.232 L 133.714 585.143 L 146.286 585.045 L 158.857 584.935 L 171.429 584.815 L 184 584.682 L 196.571 584.535 L 209.143 584.374 L 221.714 584.197 L 234.286 584.003 L 246.857 583.792 L 259.429 583.561 L 272 583.309 L 284.571 583.034 L 297.143 582.736 L 309.714 582.413 L 322.286 582.063 L 334.857 581.683 L 347.429 581.274 L 360 580.832 L 372.571 580.355 L 385.143 579.842 L 397.714 579.291 L 410.286 578.699 L 422.857 578.065 L 435.429 577.386 L 448 576.66 L 460.571 575.885 L 473.143 575.058 L 485.714 574.178 L 498.286 573.242 L 510.857 572.248 L 523.429 571.193 L 536 570.075 L 548.571 568.893 L 561.143 567.644 L 573.714 566.325 L 586.286 564.936 L 598.857 563.474 L 611.429 561.937 L 624 560.323 L 636.571 558.632 L 649.143 556.861 L 661.714 555.009 L 674.286 553.075 L 686.857 551.059 L 699.429 548.959 L 712 546.775 L 724.571 544.507 L 737.143 542.154 L 749.714 539.717 L 762.286 537.197 L 774.857 534.594 L 787.429 531.909 L 800 529.144 L 812.571 526.302 L 825.143 523.384 L 837.714 520.394 L 850.286 517.336 L 862.857 514.214 L 875.429 511.033 L 888 507.799 L 900.571 504.519 L 913.143 501.202 L 925.714 497.855 L 938.286 494.491" fill="none" stroke="#3D3D3D" stroke-opacity="0.52"/><path data-layer="field-line" data-line-kind="minor" stroke-width="1" d="M 1265.143 470.017 L 1277.714 472.652 L 1290.286 475.436 L 1302.857 478.354 L 1315.429 481.387 L 1328 484.518 L 1340.571 487.731 L 1353.143 491.008 L 1365.714 494.334 L 1378.286 497.693 L 1390.857 501.072 L 1403.429 504.455 L 1416 507.831 L 1428.571 511.187 L 1441.143 514.512 L 1453.714 517.796 L 1466.286 521.03 L 1478.857 524.205 L 1491.429 527.313 L 1504 530.35 L 1516.571 533.308 L 1529.143 536.183 L 1541.714 538.971 L 1554.286 541.668 L 1566.857 544.273 L 1579.429 546.783 L 1592 549.197 L 1604.571 551.514 L 1617.143 553.734 L 1629.714 555.857 L 1642.286 557.884 L 1654.857 559.816 L 1667.429 561.654 L 1680 563.401" fill="none" stroke="#3D3D3D" stroke-opacity="0.52"/><path data-layer="field-line" data-line-kind="minor" stroke-width="1" d="M -80 613.273 L -67.429 613.266 L -54.857 613.257 L -42.286 613.246 L -29.714 613.232 L -17.143 613.216 L -4.571 613.196 L 8 613.173 L 20.571 613.145 L 33.143 613.114 L 45.714 613.078 L 58.286 613.037 L 70.857 612.991 L 83.429 612.938 L 96 612.879 L 108.571 612.813 L 121.143 612.739 L 133.714 612.656 L 146.286 612.565 L 158.857 612.463 L 171.429 612.35 L 184 612.226 L 196.571 612.089 L 209.143 611.939 L 221.714 611.774 L 234.286 611.593 L 246.857 611.395 L 259.429 611.179 L 272 610.943 L 284.571 610.686 L 297.143 610.407 L 309.714 610.105 L 322.286 609.776 L 334.857 609.421 L 347.429 609.038 L 360 608.623 L 372.571 608.177 L 385.143 607.696 L 397.714 607.18 L 410.286 606.625 L 422.857 606.031 L 435.429 605.394 L 448 604.714 L 460.571 603.987 L 473.143 603.212 L 485.714 602.387 L 498.286 601.509 L 510.857 600.576 L 523.429 599.587 L 536 598.539 L 548.571 597.43 L 561.143 596.259 L 573.714 595.022 L 586.286 593.719 L 598.857 592.347 L 611.429 590.906 L 624 589.392 L 636.571 587.806 L 649.143 586.144 L 661.714 584.407 L 674.286 582.594 L 686.857 580.702 L 699.429 578.732 L 712 576.683 L 724.571 574.555 L 737.143 572.348 L 749.714 570.062 L 762.286 567.697 L 774.857 565.255 L 787.429 562.736 L 800 560.142 L 812.571 557.476 L 825.143 554.738 L 837.714 551.933 L 850.286 549.064 L 862.857 546.134 L 875.429 543.15 L 888 540.116 L 900.571 537.038 L 913.143 533.926 L 925.714 530.786 L 938.286 527.63" fill="none" stroke="#3D3D3D" stroke-opacity="0.52"/><path data-layer="field-line" data-line-kind="minor" stroke-width="1" d="M 1240 500.225 L 1252.571 502.366 L 1265.143 504.681 L 1277.714 507.154 L 1290.286 509.768 L 1302.857 512.506 L 1315.429 515.354 L 1328 518.293 L 1340.571 521.308 L 1353.143 524.385 L 1365.714 527.507 L 1378.286 530.66 L 1390.857 533.832 L 1403.429 537.008 L 1416 540.177 L 1428.571 543.327 L 1441.143 546.448 L 1453.714 549.53 L 1466.286 552.566 L 1478.857 555.546 L 1491.429 558.464 L 1504 561.314 L 1516.571 564.091 L 1529.143 566.79 L 1541.714 569.407 L 1554.286 571.939 L 1566.857 574.384 L 1579.429 576.741 L 1592 579.007 L 1604.571 581.182 L 1617.143 583.266 L 1629.714 585.259 L 1642.286 587.162 L 1654.857 588.976 L 1667.429 590.702 L 1680 592.342" fill="none" stroke="#3D3D3D" stroke-opacity="0.52"/><path data-layer="field-line" data-line-kind="major" stroke-width="4" d="M -80 640.732 L -67.429 640.727 L -54.857 640.719 L -42.286 640.71 L -29.714 640.698 L -17.143 640.683 L -4.571 640.665 L 8 640.644 L 20.571 640.62 L 33.143 640.591 L 45.714 640.558 L 58.286 640.521 L 70.857 640.478 L 83.429 640.43 L 96 640.376 L 108.571 640.314 L 121.143 640.246 L 133.714 640.17 L 146.286 640.085 L 158.857 639.99 L 171.429 639.886 L 184 639.771 L 196.571 639.644 L 209.143 639.504 L 221.714 639.35 L 234.286 639.182 L 246.857 638.998 L 259.429 638.797 L 272 638.577 L 284.571 638.338 L 297.143 638.078 L 309.714 637.796 L 322.286 637.49 L 334.857 637.159 L 347.429 636.801 L 360 636.415 L 372.571 635.999 L 385.143 635.55 L 397.714 635.068 L 410.286 634.551 L 422.857 633.996 L 435.429 633.402 L 448 632.767 L 460.571 632.089 L 473.143 631.366 L 485.714 630.595 L 498.286 629.776 L 510.857 628.905 L 523.429 627.982 L 536 627.003 L 548.571 625.968 L 561.143 624.874 L 573.714 623.719 L 586.286 622.502 L 598.857 621.221 L 611.429 619.875 L 624 618.461 L 636.571 616.98 L 649.143 615.428 L 661.714 613.806 L 674.286 612.112 L 686.857 610.345 L 699.429 608.505 L 712 606.591 L 724.571 604.603 L 737.143 602.542 L 749.714 600.406 L 762.286 598.197 L 774.857 595.916 L 787.429 593.563 L 800 591.14 L 812.571 588.649 L 825.143 586.092 L 837.714 583.472 L 850.286 580.791 L 862.857 578.055 L 875.429 575.267 L 888 572.432 L 900.571 569.558 L 913.143 566.65 L 925.714 563.717 L 938.286 560.768 L 950.857 557.814 L 963.429 554.866 L 976 551.938" fill="none" stroke="#545454" stroke-opacity="0.78"/><path data-layer="field-line" data-line-kind="major" stroke-width="4" d="M 1189.714 529.09 L 1202.286 530.296 L 1214.857 531.723 L 1227.429 533.355 L 1240 535.179 L 1252.571 537.181 L 1265.143 539.345 L 1277.714 541.656 L 1290.286 544.099 L 1302.857 546.659 L 1315.429 549.32 L 1328 552.068 L 1340.571 554.886 L 1353.143 557.762 L 1365.714 560.68 L 1378.286 563.627 L 1390.857 566.592 L 1403.429 569.56 L 1416 572.522 L 1428.571 575.466 L 1441.143 578.383 L 1453.714 581.265 L 1466.286 584.102 L 1478.857 586.887 L 1491.429 589.615 L 1504 592.279 L 1516.571 594.874 L 1529.143 597.397 L 1541.714 599.843 L 1554.286 602.21 L 1566.857 604.496 L 1579.429 606.698 L 1592 608.817 L 1604.571 610.85 L 1617.143 612.798 L 1629.714 614.661 L 1642.286 616.44 L 1654.857 618.136 L 1667.429 619.75 L 1680 621.283" fill="none" stroke="#545454" stroke-opacity="0.78"/><path data-layer="field-line" data-line-kind="minor" stroke-width="1" d="M -80 668.192 L -67.429 668.188 L -54.857 668.182 L -42.286 668.174 L -29.714 668.163 L -17.143 668.15 L -4.571 668.135 L 8 668.116 L 20.571 668.094 L 33.143 668.068 L 45.714 668.039 L 58.286 668.005 L 70.857 667.966 L 83.429 667.922 L 96 667.872 L 108.571 667.816 L 121.143 667.753 L 133.714 667.683 L 146.286 667.605 L 158.857 667.518 L 171.429 667.422 L 184 667.315 L 196.571 667.198 L 209.143 667.069 L 221.714 666.927 L 234.286 666.771 L 246.857 666.601 L 259.429 666.415 L 272 666.211 L 284.571 665.99 L 297.143 665.749 L 309.714 665.488 L 322.286 665.204 L 334.857 664.897 L 347.429 664.565 L 360 664.207 L 372.571 663.82 L 385.143 663.404 L 397.714 662.957 L 410.286 662.477 L 422.857 661.962 L 435.429 661.411 L 448 660.821 L 460.571 660.191 L 473.143 659.519 L 485.714 658.804 L 498.286 658.042 L 510.857 657.234 L 523.429 656.376 L 536 655.467 L 548.571 654.505 L 561.143 653.489 L 573.714 652.416 L 586.286 651.285 L 598.857 650.095 L 611.429 648.844 L 624 647.531 L 636.571 646.154 L 649.143 644.712 L 661.714 643.204 L 674.286 641.63 L 686.857 639.988 L 699.429 638.278 L 712 636.499 L 724.571 634.652 L 737.143 632.736 L 749.714 630.751 L 762.286 628.698 L 774.857 626.577 L 787.429 624.39 L 800 622.138 L 812.571 619.823 L 825.143 617.446 L 837.714 615.01 L 850.286 612.519 L 862.857 609.975 L 875.429 607.384 L 888 604.749 L 900.571 602.077 L 913.143 599.374 L 925.714 596.648 L 938.286 593.907 L 950.857 591.161 L 963.429 588.42 L 976 585.698 L 988.571 583.008 L 1001.143 580.366 L 1013.714 577.789 L 1026.286 575.296 L 1038.857 572.91 L 1051.429 570.654 L 1064 568.557 L 1076.571 566.653 L 1089.143 564.987 L 1101.714 563.634 L 1114.286 562.81 L 1126.857 562.393 L 1139.429 562.286 L 1152 562.458 L 1164.571 562.889 L 1177.143 563.564 L 1189.714 564.468 L 1202.286 565.591 L 1214.857 566.918 L 1227.429 568.436 L 1240 570.133 L 1252.571 571.995 L 1265.143 574.008 L 1277.714 576.158 L 1290.286 578.431 L 1302.857 580.812 L 1315.429 583.287 L 1328 585.843 L 1340.571 588.464 L 1353.143 591.139 L 1365.714 593.853 L 1378.286 596.594 L 1390.857 599.351 L 1403.429 602.112 L 1416 604.867 L 1428.571 607.606 L 1441.143 610.319 L 1453.714 612.999 L 1466.286 615.638 L 1478.857 618.229 L 1491.429 620.766 L 1504 623.244 L 1516.571 625.658 L 1529.143 628.004 L 1541.714 630.28 L 1554.286 632.482 L 1566.857 634.608 L 1579.429 636.656 L 1592 638.627 L 1604.571 640.518 L 1617.143 642.33 L 1629.714 644.064 L 1642.286 645.719 L 1654.857 647.296 L 1667.429 648.797 L 1680 650.224" fill="none" stroke="#3D3D3D" stroke-opacity="0.52"/><path data-layer="field-line" data-line-kind="minor" stroke-width="1" d="M -80 695.652 L -67.429 695.649 L -54.857 695.644 L -42.286 695.637 L -29.714 695.629 L -17.143 695.618 L -4.571 695.604 L 8 695.588 L 20.571 695.568 L 33.143 695.545 L 45.714 695.519 L 58.286 695.488 L 70.857 695.453 L 83.429 695.413 L 96 695.368 L 108.571 695.317 L 121.143 695.26 L 133.714 695.196 L 146.286 695.125 L 158.857 695.046 L 171.429 694.958 L 184 694.86 L 196.571 694.752 L 209.143 694.634 L 221.714 694.504 L 234.286 694.361 L 246.857 694.204 L 259.429 694.033 L 272 693.846 L 284.571 693.642 L 297.143 693.42 L 309.714 693.179 L 322.286 692.918 L 334.857 692.635 L 347.429 692.329 L 360 691.999 L 372.571 691.642 L 385.143 691.259 L 397.714 690.846 L 410.286 690.403 L 422.857 689.928 L 435.429 689.419 L 448 688.874 L 460.571 688.293 L 473.143 687.673 L 485.714 687.012 L 498.286 686.309 L 510.857 685.563 L 523.429 684.77 L 536 683.931 L 548.571 683.042 L 561.143 682.104 L 573.714 681.113 L 586.286 680.068 L 598.857 678.969 L 611.429 677.813 L 624 676.6 L 636.571 675.328 L 649.143 673.995 L 661.714 672.602 L 674.286 671.148 L 686.857 669.631 L 699.429 668.051 L 712 666.407 L 724.571 664.7 L 737.143 662.929 L 749.714 661.095 L 762.286 659.198 L 774.857 657.239 L 787.429 655.218 L 800 653.136 L 812.571 650.997 L 825.143 648.8 L 837.714 646.549 L 850.286 644.247 L 862.857 641.896 L 875.429 639.501 L 888 637.066 L 900.571 634.596 L 913.143 632.098 L 925.714 629.579 L 938.286 627.045 L 950.857 624.507 L 963.429 621.975 L 976 619.459 L 988.571 616.973 L 1001.143 614.531 L 1013.714 612.149 L 1026.286 609.846 L 1038.857 607.64 L 1051.429 605.555 L 1064 603.618 L 1076.571 601.859 L 1089.143 600.319 L 1101.714 599.069 L 1114.286 598.308 L 1126.857 597.924 L 1139.429 597.825 L 1152 597.985 L 1164.571 598.384 L 1177.143 599.009 L 1189.714 599.847 L 1202.286 600.885 L 1214.857 602.113 L 1227.429 603.518 L 1240 605.088 L 1252.571 606.81 L 1265.143 608.672 L 1277.714 610.66 L 1290.286 612.762 L 1302.857 614.965 L 1315.429 617.254 L 1328 619.618 L 1340.571 622.042 L 1353.143 624.516 L 1365.714 627.026 L 1378.286 629.561 L 1390.857 632.111 L 1403.429 634.665 L 1416 637.213 L 1428.571 639.745 L 1441.143 642.255 L 1453.714 644.733 L 1466.286 647.174 L 1478.857 649.57 L 1491.429 651.917 L 1504 654.208 L 1516.571 656.441 L 1529.143 658.611 L 1541.714 660.716 L 1554.286 662.753 L 1566.857 664.719 L 1579.429 666.614 L 1592 668.437 L 1604.571 670.186 L 1617.143 671.863 L 1629.714 673.466 L 1642.286 674.997 L 1654.857 676.456 L 1667.429 677.845 L 1680 679.165" fill="none" stroke="#3D3D3D" stroke-opacity="0.52"/><path data-layer="field-line" data-line-kind="minor" stroke-width="1" d="M -80 723.111 L -67.429 723.11 L -54.857 723.106 L -42.286 723.101 L -29.714 723.094 L -17.143 723.085 L -4.571 723.073 L 8 723.059 L 20.571 723.042 L 33.143 723.023 L 45.714 722.999 L 58.286 722.972 L 70.857 722.941 L 83.429 722.905 L 96 722.865 L 108.571 722.819 L 121.143 722.767 L 133.714 722.71 L 146.286 722.645 L 158.857 722.573 L 171.429 722.493 L 184 722.405 L 196.571 722.307 L 209.143 722.199 L 221.714 722.08 L 234.286 721.95 L 246.857 721.807 L 259.429 721.651 L 272 721.48 L 284.571 721.294 L 297.143 721.091 L 309.714 720.871 L 322.286 720.632 L 334.857 720.373 L 347.429 720.093 L 360 719.79 L 372.571 719.464 L 385.143 719.113 L 397.714 718.735 L 410.286 718.329 L 422.857 717.893 L 435.429 717.427 L 448 716.928 L 460.571 716.395 L 473.143 715.826 L 485.714 715.221 L 498.286 714.576 L 510.857 713.891 L 523.429 713.165 L 536 712.395 L 548.571 711.58 L 561.143 710.719 L 573.714 709.81 L 586.286 708.851 L 598.857 707.843 L 611.429 706.782 L 624 705.669 L 636.571 704.501 L 649.143 703.279 L 661.714 702.001 L 674.286 700.666 L 686.857 699.273 L 699.429 697.823 L 712 696.315 L 724.571 694.748 L 737.143 693.123 L 749.714 691.44 L 762.286 689.698 L 774.857 687.9 L 787.429 686.045 L 800 684.134 L 812.571 682.17 L 825.143 680.154 L 837.714 678.088 L 850.286 675.974 L 862.857 673.816 L 875.429 671.618 L 888 669.382 L 900.571 667.115 L 913.143 664.822 L 925.714 662.509 L 938.286 660.184 L 950.857 657.854 L 963.429 655.529 L 976 653.22 L 988.571 650.938 L 1001.143 648.696 L 1013.714 646.51 L 1026.286 644.395 L 1038.857 642.371 L 1051.429 640.457 L 1064 638.678 L 1076.571 637.064 L 1089.143 635.651 L 1101.714 634.504 L 1114.286 633.806 L 1126.857 633.454 L 1139.429 633.365 L 1152 633.512 L 1164.571 633.88 L 1177.143 634.455 L 1189.714 635.225 L 1202.286 636.18 L 1214.857 637.308 L 1227.429 638.599 L 1240 640.042 L 1252.571 641.624 L 1265.143 643.335 L 1277.714 645.163 L 1290.286 647.094 L 1302.857 649.118 L 1315.429 651.221 L 1328 653.392 L 1340.571 655.62 L 1353.143 657.893 L 1365.714 660.199 L 1378.286 662.528 L 1390.857 664.871 L 1403.429 667.217 L 1416 669.558 L 1428.571 671.885 L 1441.143 674.19 L 1453.714 676.468 L 1466.286 678.71 L 1478.857 680.912 L 1491.429 683.067 L 1504 685.173 L 1516.571 687.225 L 1529.143 689.219 L 1541.714 691.152 L 1554.286 693.024 L 1566.857 694.831 L 1579.429 696.572 L 1592 698.247 L 1604.571 699.854 L 1617.143 701.395 L 1629.714 702.868 L 1642.286 704.275 L 1654.857 705.616 L 1667.429 706.893 L 1680 708.106" fill="none" stroke="#3D3D3D" stroke-opacity="0.52"/><g data-layer="continuous-lens-aperture-group"><path data-layer="continuous-lens-aperture" d="M 944.095 516.869 C 934.003 476.392 997.414 425.729 1085.727 403.71 C 1174.04 381.691 1253.813 396.655 1263.905 437.131 C 1273.997 477.608 1210.586 528.271 1122.273 550.29 C 1033.96 572.309 954.187 557.345 944.095 516.869 Z" fill="#F9F8F2" stroke="#0E0E0E" stroke-width="4"/></g><g data-layer="signal-trajectory-group" data-state="active"><path data-layer="signal-trajectory" data-role="path" d="M 80 621 C 544 558 928 495 1552 261" fill="none" stroke="#C6FF24" stroke-width="14" stroke-linecap="round"/><circle data-layer="signal-trajectory" data-role="datum" cx="1552" cy="261" r="10.5" fill="#C6FF24"/></g></svg>
