<svg xmlns="http://www.w3.org/2000/svg" width="1800" height="380" viewBox="0 0 1800 380"><metadata id="bizarre-atlas-provenance">{"algorithm":{"name":"bizarre-atlas-single-mass","version":"1.0.0"},"aperturePathSha256":"bb4079e12e6db7bb2387dc7fbe174b3283b57d5af4d4e942e4053bd96158c9dd","apertureVersion":"continuous-lens-aperture/owner-selected-left-v2","appearance":"dark","configuration":{"algorithm":{"name":"bizarre-atlas-single-mass","version":"1.0.0"},"aperture":{"pathSha256":"bb4079e12e6db7bb2387dc7fbe174b3283b57d5af4d4e942e4053bd96158c9dd","version":"continuous-lens-aperture/owner-selected-left-v2"},"dimensions":{"height":380,"width":1800},"field":{"compressionExponent":1.72,"lineWidths":{"band":14,"major":4,"minor":1,"unit":"px"},"majorInterval":5,"mass":{"x":0.69,"y":0.53},"parameters":{"apertureRadius":{"x":0.103},"asymmetry":0.22,"extent":1.1,"fieldStrength":{"far":0.1,"near":0.18},"lineCounts":{"field":27,"large":53,"medium":19,"micro":0,"small":7},"occlusionExpansion":1.02,"sampleCount":140,"spacing":0.0305,"spacingByOpticalSize":{"large":0.01525},"tiltScale":0.003}},"orientation":18,"palette":{"backgrounds":{"dark":"#0E0E0E","light":"#F9F8F2"},"neutral":{"darkMajor":"#B8B8B8","darkMinor":"#545454","lightMajor":"#545454","lightMinor":"#3D3D3D","paper":"#F9F8F2","void":"#0E0E0E"},"signal":"#C6FF24","spectrum":["#20274D","#3156A6","#4AA5AF","#5C887C","#D5A347","#C96C3E","#B64C63","#684F83"]},"render":{"appearance":"dark","opticalSize":"field","productionProfile":"screen","representation":"spectral","trajectoryState":"active"},"sourceDocuments":{"atlas":{"path":"tokens/source/atlas.tokens.json","sha256":"f9ea6d70b46763a19b18d409b8009fea3b4702ce2e85db4fa7f75a4e424303be"},"capture":{"path":"tokens/source/capture.tokens.json","sha256":"9aa9800b02cef2a5aece083794bb694a5481c994782735be0c1334c116ae89ff"},"material":{"path":"tokens/source/material.tokens.json","sha256":"d9187741a039bb86cae5a7f25125cc53d16be113eb123c0e53bd9264265fdb45"},"motion":{"path":"tokens/source/motion.tokens.json","sha256":"d309baee4fc7f8a6d945814b57547bba6da10258caa48fef4778d736ec4d5e32"},"palette":{"path":"tokens/source/palette.tokens.json","sha256":"6a19e3a3fb43a93dc01905606c3005848cc77da00ae12c53f7818b226bf56a50"},"productionPolicy":{"path":"policies/production.json","sha256":"3b46d4912cb34cb657832cb53e96f0d61ad34b15c515bfa89e9b37e487442315"},"provenancePolicy":{"path":"policies/provenance.json","sha256":"aba4b407ef8022cd91860c0b2a2599c4998c78b68b5ece86a69564082efe35c9"},"rendererConfig":{"path":"packages/atlas/src/renderer-config.json","sha256":"01410a36941de6e7e5db88d414dd8a5e30e39c7c57a010b56c9761acafe79951"}}},"configurationHash":"85d3a4933e0683fb0aaa729ed9ba9e1f9310fc358ab45fcc97257b6439424028","fieldConfigurationHash":"1e8a78736c709876e8bbebaa19b0cb65b338a1cc108b6f2f90c549c97c4f3a6a","model":{"name":"single-mass-lensing-field","version":"1.0.0"},"opticalSize":"field","orientation":18,"orientationUnit":"deg","productionProfile":"screen","representation":"spectral","schemaVersion":1,"sourceIdentifier":"synthetic:bizarre-atlas-single-mass@1.0.0:1e8a78736c709876e8bbebaa19b0cb65b338a1cc108b6f2f90c549c97c4f3a6a","sourceType":"synthetic","trajectoryState":"active"}</metadata><defs><linearGradient id="atlas-spectrum" x1="0" y1="0" x2="1" y2="0"><stop offset="0" stop-color="#20274D"/><stop offset="0.143" stop-color="#3156A6"/><stop offset="0.286" stop-color="#4AA5AF"/><stop offset="0.429" stop-color="#5C887C"/><stop offset="0.571" stop-color="#D5A347"/><stop offset="0.714" stop-color="#C96C3E"/><stop offset="0.857" stop-color="#B64C63"/><stop offset="1" stop-color="#684F83"/></linearGradient></defs><rect data-layer="background" width="1800" height="380" fill="#0E0E0E"/><path data-layer="field-line" data-line-kind="major" stroke-width="14" d="M -90 49.843 L -75.857 49.862 L -61.714 49.882 L -47.571 49.902 L -33.429 49.924 L -19.286 49.946 L -5.143 49.969 L 9 49.993 L 23.143 50.019 L 37.286 50.046 L 51.429 50.074 L 65.571 50.104 L 79.714 50.135 L 93.857 50.168 L 108 50.204 L 122.143 50.242 L 136.286 50.282 L 150.429 50.324 L 164.571 50.37 L 178.714 50.419 L 192.857 50.471 L 207 50.526 L 221.143 50.586 L 235.286 50.65 L 249.429 50.718 L 263.571 50.792 L 277.714 50.87 L 291.857 50.955 L 306 51.045 L 320.143 51.142 L 334.286 51.246 L 348.429 51.357 L 362.571 51.477 L 376.714 51.604 L 390.857 51.741 L 405 51.887 L 419.143 52.043 L 433.286 52.21 L 447.429 52.388 L 461.571 52.577 L 475.714 52.78 L 489.857 52.995 L 504 53.224 L 518.143 53.467 L 532.286 53.726 L 546.429 54 L 560.571 54.29 L 574.714 54.598 L 588.857 54.923 L 603 55.266 L 617.143 55.629 L 631.286 56.01 L 645.429 56.413 L 659.571 56.836 L 673.714 57.28 L 687.857 57.746 L 702 58.234 L 716.143 58.746 L 730.286 59.28 L 744.429 59.838 L 758.571 60.42 L 772.714 61.026 L 786.857 61.657 L 801 62.312 L 815.143 62.992 L 829.286 63.696 L 843.429 64.425 L 857.571 65.179 L 871.714 65.957 L 885.857 66.758 L 900 67.583 L 914.143 68.431 L 928.286 69.301 L 942.429 70.191 L 956.571 71.102 L 970.714 72.031 L 984.857 72.978 L 999 73.94 L 1013.143 74.916 L 1027.286 75.902 L 1041.429 76.897 L 1055.571 77.897 L 1069.714 78.899 L 1083.857 79.899 L 1098 80.893 L 1112.143 81.875 L 1126.286 82.839 L 1140.429 83.781 L 1154.571 84.692 L 1168.714 85.565 L 1182.857 86.391 L 1197 87.161 L 1211.143 87.861 L 1225.286 88.476 L 1239.429 88.978 L 1253.571 89.291 L 1267.714 89.458 L 1281.857 89.514 L 1296 89.47 L 1310.143 89.333 L 1324.286 89.109 L 1338.429 88.802 L 1352.571 88.417 L 1366.714 87.959 L 1380.857 87.433 L 1395 86.842 L 1409.143 86.192 L 1423.286 85.488 L 1437.429 84.735 L 1451.571 83.937 L 1465.714 83.101 L 1479.857 82.232 L 1494 81.333 L 1508.143 80.411 L 1522.286 79.47 L 1536.429 78.514 L 1550.571 77.549 L 1564.714 76.578 L 1578.857 75.606 L 1593 74.636 L 1607.143 73.672 L 1621.286 72.717 L 1635.429 71.774 L 1649.571 70.845 L 1663.714 69.934 L 1677.857 69.042 L 1692 68.171 L 1706.143 67.323 L 1720.286 66.5 L 1734.429 65.702 L 1748.571 64.93 L 1762.714 64.185 L 1776.857 63.468 L 1791 62.78 L 1805.143 62.119 L 1819.286 61.487 L 1833.429 60.883 L 1847.571 60.308 L 1861.714 59.76 L 1875.857 59.239 L 1890 58.745" fill="none" stroke="url(#atlas-spectrum)" stroke-opacity="0.78"/><path data-layer="field-line" data-line-kind="minor" stroke-width="4" d="M -90 61.436 L -75.857 61.455 L -61.714 61.475 L -47.571 61.496 L -33.429 61.518 L -19.286 61.541 L -5.143 61.565 L 9 61.59 L 23.143 61.616 L 37.286 61.644 L 51.429 61.673 L 65.571 61.703 L 79.714 61.736 L 93.857 61.771 L 108 61.807 L 122.143 61.847 L 136.286 61.888 L 150.429 61.933 L 164.571 61.98 L 178.714 62.031 L 192.857 62.086 L 207 62.144 L 221.143 62.207 L 235.286 62.274 L 249.429 62.345 L 263.571 62.423 L 277.714 62.505 L 291.857 62.594 L 306 62.689 L 320.143 62.791 L 334.286 62.901 L 348.429 63.018 L 362.571 63.144 L 376.714 63.278 L 390.857 63.423 L 405 63.577 L 419.143 63.742 L 433.286 63.918 L 447.429 64.106 L 461.571 64.306 L 475.714 64.52 L 489.857 64.748 L 504 64.99 L 518.143 65.248 L 532.286 65.521 L 546.429 65.811 L 560.571 66.119 L 574.714 66.444 L 588.857 66.789 L 603 67.152 L 617.143 67.536 L 631.286 67.941 L 645.429 68.367 L 659.571 68.815 L 673.714 69.286 L 687.857 69.78 L 702 70.298 L 716.143 70.839 L 730.286 71.406 L 744.429 71.998 L 758.571 72.615 L 772.714 73.257 L 786.857 73.926 L 801 74.62 L 815.143 75.341 L 829.286 76.088 L 843.429 76.862 L 857.571 77.661 L 871.714 78.485 L 885.857 79.335 L 900 80.21 L 914.143 81.109 L 928.286 82.032 L 942.429 82.976 L 956.571 83.942 L 970.714 84.928 L 984.857 85.932 L 999 86.953 L 1013.143 87.987 L 1027.286 89.034 L 1041.429 90.089 L 1055.571 91.15 L 1069.714 92.213 L 1083.857 93.274 L 1098 94.327 L 1112.143 95.369 L 1126.286 96.392 L 1140.429 97.391 L 1154.571 98.357 L 1168.714 99.283 L 1182.857 100.16 L 1197 100.975 L 1211.143 101.718 L 1225.286 102.37 L 1239.429 102.902 L 1253.571 103.234 L 1267.714 103.41 L 1281.857 103.469 L 1296 103.421 L 1310.143 103.275 L 1324.286 103.036 L 1338.429 102.71 L 1352.571 102.3 L 1366.714 101.813 L 1380.857 101.253 L 1395 100.625 L 1409.143 99.935 L 1423.286 99.186 L 1437.429 98.386 L 1451.571 97.539 L 1465.714 96.651 L 1479.857 95.727 L 1494 94.772 L 1508.143 93.792 L 1522.286 92.792 L 1536.429 91.777 L 1550.571 90.752 L 1564.714 89.72 L 1578.857 88.687 L 1593 87.657 L 1607.143 86.633 L 1621.286 85.618 L 1635.429 84.616 L 1649.571 83.63 L 1663.714 82.661 L 1677.857 81.714 L 1692 80.789 L 1706.143 79.888 L 1720.286 79.013 L 1734.429 78.165 L 1748.571 77.345 L 1762.714 76.553 L 1776.857 75.792 L 1791 75.06 L 1805.143 74.358 L 1819.286 73.686 L 1833.429 73.044 L 1847.571 72.432 L 1861.714 71.85 L 1875.857 71.296 L 1890 70.771" fill="none" stroke="url(#atlas-spectrum)" stroke-opacity="0.42"/><path data-layer="field-line" data-line-kind="minor" stroke-width="4" d="M -90 73.029 L -75.857 73.049 L -61.714 73.069 L -47.571 73.09 L -33.429 73.113 L -19.286 73.136 L -5.143 73.16 L 9 73.186 L 23.143 73.213 L 37.286 73.241 L 51.429 73.271 L 65.571 73.303 L 79.714 73.337 L 93.857 73.373 L 108 73.411 L 122.143 73.452 L 136.286 73.495 L 150.429 73.541 L 164.571 73.591 L 178.714 73.644 L 192.857 73.701 L 207 73.762 L 221.143 73.827 L 235.286 73.897 L 249.429 73.972 L 263.571 74.053 L 277.714 74.14 L 291.857 74.233 L 306 74.333 L 320.143 74.44 L 334.286 74.555 L 348.429 74.679 L 362.571 74.811 L 376.714 74.953 L 390.857 75.104 L 405 75.267 L 419.143 75.44 L 433.286 75.626 L 447.429 75.824 L 461.571 76.036 L 475.714 76.261 L 489.857 76.501 L 504 76.757 L 518.143 77.028 L 532.286 77.317 L 546.429 77.623 L 560.571 77.948 L 574.714 78.291 L 588.857 78.655 L 603 79.039 L 617.143 79.444 L 631.286 79.872 L 645.429 80.322 L 659.571 80.795 L 673.714 81.292 L 687.857 81.814 L 702 82.361 L 716.143 82.933 L 730.286 83.532 L 744.429 84.157 L 758.571 84.809 L 772.714 85.488 L 786.857 86.195 L 801 86.929 L 815.143 87.691 L 829.286 88.48 L 843.429 89.298 L 857.571 90.142 L 871.714 91.014 L 885.857 91.913 L 900 92.837 L 914.143 93.788 L 928.286 94.763 L 942.429 95.762 L 956.571 96.783 L 970.714 97.825 L 984.857 98.886 L 999 99.965 L 1013.143 101.059 L 1027.286 102.166 L 1041.429 103.281 L 1055.571 104.403 L 1069.714 105.527 L 1083.857 106.648 L 1098 107.762 L 1112.143 108.863 L 1126.286 109.945 L 1140.429 111.001 L 1154.571 112.022 L 1168.714 113.001 L 1182.857 113.928 L 1197 114.79 L 1211.143 115.575 L 1225.286 116.263" fill="none" stroke="url(#atlas-spectrum)" stroke-opacity="0.42"/><path data-layer="field-line" data-line-kind="minor" stroke-width="4" d="M 1380.857 115.074 L 1395 114.409 L 1409.143 113.677 L 1423.286 112.885 L 1437.429 112.037 L 1451.571 111.141 L 1465.714 110.2 L 1479.857 109.221 L 1494 108.211 L 1508.143 107.173 L 1522.286 106.115 L 1536.429 105.04 L 1550.571 103.954 L 1564.714 102.862 L 1578.857 101.769 L 1593 100.678 L 1607.143 99.593 L 1621.286 98.519 L 1635.429 97.458 L 1649.571 96.414 L 1663.714 95.389 L 1677.857 94.386 L 1692 93.406 L 1706.143 92.452 L 1720.286 91.526 L 1734.429 90.628 L 1748.571 89.759 L 1762.714 88.921 L 1776.857 88.115 L 1791 87.339 L 1805.143 86.596 L 1819.286 85.884 L 1833.429 85.205 L 1847.571 84.556 L 1861.714 83.939 L 1875.857 83.353 L 1890 82.797" fill="none" stroke="url(#atlas-spectrum)" stroke-opacity="0.42"/><path data-layer="field-line" data-line-kind="minor" stroke-width="4" d="M -90 84.622 L -75.857 84.642 L -61.714 84.663 L -47.571 84.684 L -33.429 84.707 L -19.286 84.731 L -5.143 84.756 L 9 84.782 L 23.143 84.81 L 37.286 84.839 L 51.429 84.87 L 65.571 84.903 L 79.714 84.938 L 93.857 84.975 L 108 85.015 L 122.143 85.057 L 136.286 85.102 L 150.429 85.15 L 164.571 85.201 L 178.714 85.257 L 192.857 85.316 L 207 85.379 L 221.143 85.448 L 235.286 85.521 L 249.429 85.599 L 263.571 85.684 L 277.714 85.775 L 291.857 85.872 L 306 85.977 L 320.143 86.089 L 334.286 86.21 L 348.429 86.339 L 362.571 86.478 L 376.714 86.627 L 390.857 86.786 L 405 86.957 L 419.143 87.139 L 433.286 87.334 L 447.429 87.542 L 461.571 87.765 L 475.714 88.002 L 489.857 88.254 L 504 88.523 L 518.143 88.809 L 532.286 89.113 L 546.429 89.435 L 560.571 89.776 L 574.714 90.138 L 588.857 90.521 L 603 90.925 L 617.143 91.352 L 631.286 91.802 L 645.429 92.276 L 659.571 92.775 L 673.714 93.298 L 687.857 93.848 L 702 94.424 L 716.143 95.027 L 730.286 95.658 L 744.429 96.317 L 758.571 97.004 L 772.714 97.719 L 786.857 98.464 L 801 99.237 L 815.143 100.04 L 829.286 100.872 L 843.429 101.734 L 857.571 102.624 L 871.714 103.543 L 885.857 104.49 L 900 105.465 L 914.143 106.466 L 928.286 107.494 L 942.429 108.547 L 956.571 109.623 L 970.714 110.722 L 984.857 111.841 L 999 112.978 L 1013.143 114.131 L 1027.286 115.297 L 1041.429 116.473 L 1055.571 117.656 L 1069.714 118.84 L 1083.857 120.022 L 1098 121.197 L 1112.143 122.357 L 1126.286 123.498 L 1140.429 124.611 L 1154.571 125.688 L 1168.714 126.72 L 1182.857 127.696" fill="none" stroke="url(#atlas-spectrum)" stroke-opacity="0.42"/><path data-layer="field-line" data-line-kind="minor" stroke-width="4" d="M 1409.143 127.42 L 1423.286 126.584 L 1437.429 125.689 L 1451.571 124.742 L 1465.714 123.749 L 1479.857 122.716 L 1494 121.65 L 1508.143 120.555 L 1522.286 119.437 L 1536.429 118.303 L 1550.571 117.157 L 1564.714 116.005 L 1578.857 114.85 L 1593 113.699 L 1607.143 112.554 L 1621.286 111.42 L 1635.429 110.301 L 1649.571 109.198 L 1663.714 108.116 L 1677.857 107.057 L 1692 106.023 L 1706.143 105.017 L 1720.286 104.038 L 1734.429 103.09 L 1748.571 102.174 L 1762.714 101.289 L 1776.857 100.438 L 1791 99.619 L 1805.143 98.834 L 1819.286 98.083 L 1833.429 97.365 L 1847.571 96.681 L 1861.714 96.029 L 1875.857 95.41 L 1890 94.823" fill="none" stroke="url(#atlas-spectrum)" stroke-opacity="0.42"/><path data-layer="field-line" data-line-kind="minor" stroke-width="4" d="M -90 96.214 L -75.857 96.235 L -61.714 96.256 L -47.571 96.279 L -33.429 96.302 L -19.286 96.326 L -5.143 96.352 L 9 96.379 L 23.143 96.407 L 37.286 96.437 L 51.429 96.469 L 65.571 96.503 L 79.714 96.539 L 93.857 96.577 L 108 96.618 L 122.143 96.662 L 136.286 96.708 L 150.429 96.758 L 164.571 96.812 L 178.714 96.869 L 192.857 96.931 L 207 96.997 L 221.143 97.068 L 235.286 97.144 L 249.429 97.227 L 263.571 97.315 L 277.714 97.409 L 291.857 97.511 L 306 97.621 L 320.143 97.738 L 334.286 97.864 L 348.429 98 L 362.571 98.145 L 376.714 98.301 L 390.857 98.468 L 405 98.647 L 419.143 98.838 L 433.286 99.042 L 447.429 99.261 L 461.571 99.494 L 475.714 99.742 L 489.857 100.007 L 504 100.29 L 518.143 100.59 L 532.286 100.908 L 546.429 101.247 L 560.571 101.605 L 574.714 101.985 L 588.857 102.387 L 603 102.812 L 617.143 103.26 L 631.286 103.733 L 645.429 104.23 L 659.571 104.754 L 673.714 105.305 L 687.857 105.882 L 702 106.487 L 716.143 107.121 L 730.286 107.784 L 744.429 108.476 L 758.571 109.198 L 772.714 109.95 L 786.857 110.733 L 801 111.546 L 815.143 112.39 L 829.286 113.264 L 843.429 114.17 L 857.571 115.106 L 871.714 116.071 L 885.857 117.067 L 900 118.092 L 914.143 119.145 L 928.286 120.225 L 942.429 121.332 L 956.571 122.464 L 970.714 123.618 L 984.857 124.795 L 999 125.99 L 1013.143 127.203 L 1027.286 128.429 L 1041.429 129.665 L 1055.571 130.909 L 1069.714 132.154 L 1083.857 133.397 L 1098 134.631 L 1112.143 135.852 L 1126.286 137.051 L 1140.429 138.221 L 1154.571 139.353" fill="none" stroke="url(#atlas-spectrum)" stroke-opacity="0.42"/><path data-layer="field-line" data-line-kind="minor" stroke-width="4" d="M 1423.286 140.282 L 1437.429 139.34 L 1451.571 138.344 L 1465.714 137.299 L 1479.857 136.211 L 1494 135.088 L 1508.143 133.936 L 1522.286 132.76 L 1536.429 131.566 L 1550.571 130.36 L 1564.714 129.147 L 1578.857 127.932 L 1593 126.72 L 1607.143 125.515 L 1621.286 124.322 L 1635.429 123.143 L 1649.571 121.983 L 1663.714 120.844 L 1677.857 119.729 L 1692 118.641 L 1706.143 117.581 L 1720.286 116.551 L 1734.429 115.553 L 1748.571 114.588 L 1762.714 113.657 L 1776.857 112.761 L 1791 111.899 L 1805.143 111.073 L 1819.286 110.282 L 1833.429 109.526 L 1847.571 108.805 L 1861.714 108.119 L 1875.857 107.467 L 1890 106.849" fill="none" stroke="url(#atlas-spectrum)" stroke-opacity="0.42"/><path data-layer="field-line" data-line-kind="major" stroke-width="14" d="M -90 107.807 L -75.857 107.828 L -61.714 107.85 L -47.571 107.873 L -33.429 107.896 L -19.286 107.921 L -5.143 107.947 L 9 107.975 L 23.143 108.004 L 37.286 108.035 L 51.429 108.068 L 65.571 108.103 L 79.714 108.14 L 93.857 108.179 L 108 108.222 L 122.143 108.267 L 136.286 108.315 L 150.429 108.367 L 164.571 108.422 L 178.714 108.482 L 192.857 108.546 L 207 108.615 L 221.143 108.689 L 235.286 108.768 L 249.429 108.854 L 263.571 108.945 L 277.714 109.044 L 291.857 109.15 L 306 109.265 L 320.143 109.387 L 334.286 109.519 L 348.429 109.66 L 362.571 109.812 L 376.714 109.975 L 390.857 110.15 L 405 110.336 L 419.143 110.536 L 433.286 110.75 L 447.429 110.979 L 461.571 111.223 L 475.714 111.483 L 489.857 111.761 L 504 112.056 L 518.143 112.37 L 532.286 112.704 L 546.429 113.058 L 560.571 113.434 L 574.714 113.832 L 588.857 114.253 L 603 114.698 L 617.143 115.168 L 631.286 115.663 L 645.429 116.185 L 659.571 116.734 L 673.714 117.311 L 687.857 117.916 L 702 118.551 L 716.143 119.215 L 730.286 119.91 L 744.429 120.636 L 758.571 121.393 L 772.714 122.181 L 786.857 123.002 L 801 123.854 L 815.143 124.739 L 829.286 125.657 L 843.429 126.606 L 857.571 127.587 L 871.714 128.6 L 885.857 129.644 L 900 130.719 L 914.143 131.823 L 928.286 132.956 L 942.429 134.117 L 956.571 135.304 L 970.714 136.515 L 984.857 137.749 L 999 139.003 L 1013.143 140.275 L 1027.286 141.561 L 1041.429 142.858 L 1055.571 144.161 L 1069.714 145.468 L 1083.857 146.771 L 1098 148.066 L 1112.143 149.346 L 1126.286 150.604" fill="none" stroke="url(#atlas-spectrum)" stroke-opacity="0.78"/><path data-layer="field-line" data-line-kind="major" stroke-width="14" d="M 1423.286 153.981 L 1437.429 152.992 L 1451.571 151.945 L 1465.714 150.848 L 1479.857 149.706 L 1494 148.527 L 1508.143 147.317 L 1522.286 146.082 L 1536.429 144.829 L 1550.571 143.562 L 1564.714 142.289 L 1578.857 141.013 L 1593 139.741 L 1607.143 138.476 L 1621.286 137.223 L 1635.429 135.985 L 1649.571 134.767 L 1663.714 133.571 L 1677.857 132.401 L 1692 131.258 L 1706.143 130.145 L 1720.286 129.064 L 1734.429 128.016 L 1748.571 127.003 L 1762.714 126.025 L 1776.857 125.084 L 1791 124.179 L 1805.143 123.311 L 1819.286 122.48 L 1833.429 121.687 L 1847.571 120.93 L 1861.714 120.209 L 1875.857 119.524 L 1890 118.874" fill="none" stroke="url(#atlas-spectrum)" stroke-opacity="0.78"/><path data-layer="field-line" data-line-kind="minor" stroke-width="4" d="M -90 119.4 L -75.857 119.421 L -61.714 119.443 L -47.571 119.467 L -33.429 119.491 L -19.286 119.516 L -5.143 119.543 L 9 119.571 L 23.143 119.601 L 37.286 119.633 L 51.429 119.667 L 65.571 119.703 L 79.714 119.741 L 93.857 119.782 L 108 119.825 L 122.143 119.872 L 136.286 119.922 L 150.429 119.975 L 164.571 120.033 L 178.714 120.095 L 192.857 120.161 L 207 120.232 L 221.143 120.309 L 235.286 120.392 L 249.429 120.481 L 263.571 120.576 L 277.714 120.679 L 291.857 120.789 L 306 120.908 L 320.143 121.036 L 334.286 121.174 L 348.429 121.321 L 362.571 121.479 L 376.714 121.649 L 390.857 121.831 L 405 122.026 L 419.143 122.235 L 433.286 122.458 L 447.429 122.697 L 461.571 122.952 L 475.714 123.224 L 489.857 123.514 L 504 123.822 L 518.143 124.151 L 532.286 124.5 L 546.429 124.87 L 560.571 125.263 L 574.714 125.679 L 588.857 126.119 L 603 126.584 L 617.143 127.076 L 631.286 127.594 L 645.429 128.139 L 659.571 128.714 L 673.714 129.317 L 687.857 129.95 L 702 130.614 L 716.143 131.309 L 730.286 132.036 L 744.429 132.795 L 758.571 133.587 L 772.714 134.412 L 786.857 135.271 L 801 136.163 L 815.143 137.089 L 829.286 138.049 L 843.429 139.042 L 857.571 140.069 L 871.714 141.129 L 885.857 142.221 L 900 143.346 L 914.143 144.502 L 928.286 145.687 L 942.429 146.902 L 956.571 148.144 L 970.714 149.412 L 984.857 150.703 L 999 152.016 L 1013.143 153.346 L 1027.286 154.692 L 1041.429 156.05 L 1055.571 157.414 L 1069.714 158.781 L 1083.857 160.146 L 1098 161.501 L 1112.143 162.84" fill="none" stroke="url(#atlas-spectrum)" stroke-opacity="0.42"/><path data-layer="field-line" data-line-kind="minor" stroke-width="4" d="M 1437.429 166.643 L 1451.571 165.547 L 1465.714 164.397 L 1479.857 163.201 L 1494 161.966 L 1508.143 160.698 L 1522.286 159.405 L 1536.429 158.092 L 1550.571 156.765 L 1564.714 155.431 L 1578.857 154.095 L 1593 152.762 L 1607.143 151.437 L 1621.286 150.124 L 1635.429 148.828 L 1649.571 147.552 L 1663.714 146.299 L 1677.857 145.073 L 1692 143.876 L 1706.143 142.71 L 1720.286 141.577 L 1734.429 140.479 L 1748.571 139.418 L 1762.714 138.393 L 1776.857 137.407 L 1791 136.459 L 1805.143 135.549 L 1819.286 134.679 L 1833.429 133.847 L 1847.571 133.054 L 1861.714 132.299 L 1875.857 131.581 L 1890 130.9" fill="none" stroke="url(#atlas-spectrum)" stroke-opacity="0.42"/><path data-layer="field-line" data-line-kind="minor" stroke-width="4" d="M -90 130.993 L -75.857 131.015 L -61.714 131.037 L -47.571 131.061 L -33.429 131.085 L -19.286 131.111 L -5.143 131.139 L 9 131.168 L 23.143 131.198 L 37.286 131.231 L 51.429 131.266 L 65.571 131.302 L 79.714 131.342 L 93.857 131.384 L 108 131.429 L 122.143 131.477 L 136.286 131.528 L 150.429 131.584 L 164.571 131.643 L 178.714 131.707 L 192.857 131.776 L 207 131.85 L 221.143 131.93 L 235.286 132.015 L 249.429 132.108 L 263.571 132.207 L 277.714 132.314 L 291.857 132.429 L 306 132.552 L 320.143 132.685 L 334.286 132.828 L 348.429 132.982 L 362.571 133.146 L 376.714 133.323 L 390.857 133.513 L 405 133.716 L 419.143 133.934 L 433.286 134.167 L 447.429 134.415 L 461.571 134.681 L 475.714 134.965 L 489.857 135.267 L 504 135.589 L 518.143 135.931 L 532.286 136.295 L 546.429 136.682 L 560.571 137.091 L 574.714 137.526 L 588.857 137.985 L 603 138.471 L 617.143 138.983 L 631.286 139.524 L 645.429 140.094 L 659.571 140.693 L 673.714 141.323 L 687.857 141.984 L 702 142.677 L 716.143 143.403 L 730.286 144.162 L 744.429 144.955 L 758.571 145.782 L 772.714 146.643 L 786.857 147.54 L 801 148.471 L 815.143 149.438 L 829.286 150.441 L 843.429 151.478 L 857.571 152.55 L 871.714 153.657 L 885.857 154.799 L 900 155.973 L 914.143 157.18 L 928.286 158.419 L 942.429 159.687 L 956.571 160.985 L 970.714 162.309 L 984.857 163.657 L 999 165.028 L 1013.143 166.418 L 1027.286 167.824 L 1041.429 169.242 L 1055.571 170.667 L 1069.714 172.095 L 1083.857 173.52 L 1098 174.936" fill="none" stroke="url(#atlas-spectrum)" stroke-opacity="0.42"/><path data-layer="field-line" data-line-kind="minor" stroke-width="4" d="M 1423.286 181.378 L 1437.429 180.295 L 1451.571 179.148 L 1465.714 177.946 L 1479.857 176.696 L 1494 175.405 L 1508.143 174.08 L 1522.286 172.727 L 1536.429 171.354 L 1550.571 169.968 L 1564.714 168.573 L 1578.857 167.176 L 1593 165.783 L 1607.143 164.397 L 1621.286 163.025 L 1635.429 161.67 L 1649.571 160.336 L 1663.714 159.026 L 1677.857 157.744 L 1692 156.493 L 1706.143 155.274 L 1720.286 154.09 L 1734.429 152.942 L 1748.571 151.832 L 1762.714 150.761 L 1776.857 149.73 L 1791 148.739 L 1805.143 147.788 L 1819.286 146.878 L 1833.429 146.008 L 1847.571 145.179 L 1861.714 144.389 L 1875.857 143.638 L 1890 142.926" fill="none" stroke="url(#atlas-spectrum)" stroke-opacity="0.42"/><path data-layer="field-line" data-line-kind="minor" stroke-width="4" d="M -90 142.586 L -75.857 142.608 L -61.714 142.631 L -47.571 142.655 L -33.429 142.68 L -19.286 142.706 L -5.143 142.734 L 9 142.764 L 23.143 142.796 L 37.286 142.829 L 51.429 142.864 L 65.571 142.902 L 79.714 142.943 L 93.857 142.986 L 108 143.032 L 122.143 143.082 L 136.286 143.135 L 150.429 143.192 L 164.571 143.254 L 178.714 143.32 L 192.857 143.391 L 207 143.468 L 221.143 143.55 L 235.286 143.639 L 249.429 143.735 L 263.571 143.838 L 277.714 143.948 L 291.857 144.068 L 306 144.196 L 320.143 144.334 L 334.286 144.483 L 348.429 144.642 L 362.571 144.814 L 376.714 144.997 L 390.857 145.195 L 405 145.406 L 419.143 145.632 L 433.286 145.875 L 447.429 146.134 L 461.571 146.41 L 475.714 146.705 L 489.857 147.02 L 504 147.355 L 518.143 147.712 L 532.286 148.091 L 546.429 148.493 L 560.571 148.92 L 574.714 149.373 L 588.857 149.851 L 603 150.357 L 617.143 150.891 L 631.286 151.455 L 645.429 152.048 L 659.571 152.673 L 673.714 153.329 L 687.857 154.018 L 702 154.741 L 716.143 155.497 L 730.286 156.288 L 744.429 157.114 L 758.571 157.976 L 772.714 158.874 L 786.857 159.809 L 801 160.78 L 815.143 161.788 L 829.286 162.833 L 843.429 163.914 L 857.571 165.032 L 871.714 166.186 L 885.857 167.376 L 900 168.6 L 914.143 169.859 L 928.286 171.15 L 942.429 172.473 L 956.571 173.825 L 970.714 175.205 L 984.857 176.612 L 999 178.041 L 1013.143 179.49 L 1027.286 180.956 L 1041.429 182.434 L 1055.571 183.92 L 1069.714 185.409 L 1083.857 186.894" fill="none" stroke="url(#atlas-spectrum)" stroke-opacity="0.42"/><path data-layer="field-line" data-line-kind="minor" stroke-width="4" d="M 1423.286 195.076 L 1437.429 193.946 L 1451.571 192.75 L 1465.714 191.496 L 1479.857 190.191 L 1494 188.844 L 1508.143 187.461 L 1522.286 186.05 L 1536.429 184.617 L 1550.571 183.17 L 1564.714 181.715 L 1578.857 180.258 L 1593 178.804 L 1607.143 177.358 L 1621.286 175.926 L 1635.429 174.512 L 1649.571 173.12 L 1663.714 171.754 L 1677.857 170.416 L 1692 169.11 L 1706.143 167.838 L 1720.286 166.603 L 1734.429 165.405 L 1748.571 164.247 L 1762.714 163.129 L 1776.857 162.053 L 1791 161.018 L 1805.143 160.026 L 1819.286 159.076 L 1833.429 158.169 L 1847.571 157.303 L 1861.714 156.479 L 1875.857 155.695 L 1890 154.952" fill="none" stroke="url(#atlas-spectrum)" stroke-opacity="0.42"/><path data-layer="field-line" data-line-kind="minor" stroke-width="4" d="M -90 154.179 L -75.857 154.201 L -61.714 154.224 L -47.571 154.249 L -33.429 154.274 L -19.286 154.301 L -5.143 154.33 L 9 154.36 L 23.143 154.393 L 37.286 154.427 L 51.429 154.463 L 65.571 154.502 L 79.714 154.544 L 93.857 154.588 L 108 154.636 L 122.143 154.687 L 136.286 154.742 L 150.429 154.801 L 164.571 154.864 L 178.714 154.933 L 192.857 155.006 L 207 155.085 L 221.143 155.171 L 235.286 155.263 L 249.429 155.362 L 263.571 155.468 L 277.714 155.583 L 291.857 155.707 L 306 155.84 L 320.143 155.983 L 334.286 156.137 L 348.429 156.303 L 362.571 156.481 L 376.714 156.672 L 390.857 156.876 L 405 157.096 L 419.143 157.331 L 433.286 157.583 L 447.429 157.852 L 461.571 158.139 L 475.714 158.446 L 489.857 158.773 L 504 159.122 L 518.143 159.492 L 532.286 159.887 L 546.429 160.305 L 560.571 160.749 L 574.714 161.219 L 588.857 161.717 L 603 162.243 L 617.143 162.799 L 631.286 163.385 L 645.429 164.003 L 659.571 164.653 L 673.714 165.335 L 687.857 166.052 L 702 166.804 L 716.143 167.591 L 730.286 168.414 L 744.429 169.274 L 758.571 170.171 L 772.714 171.105 L 786.857 172.078 L 801 173.088 L 815.143 174.137 L 829.286 175.225 L 843.429 176.35 L 857.571 177.514 L 871.714 178.715 L 885.857 179.953 L 900 181.227 L 914.143 182.537 L 928.286 183.881 L 942.429 185.258 L 956.571 186.665 L 970.714 188.102 L 984.857 189.566 L 999 191.053 L 1013.143 192.562 L 1027.286 194.087 L 1041.429 195.626 L 1055.571 197.173 L 1069.714 198.722" fill="none" stroke="url(#atlas-spectrum)" stroke-opacity="0.42"/><path data-layer="field-line" data-line-kind="minor" stroke-width="4" d="M 1409.143 209.876 L 1423.286 208.775 L 1437.429 207.597 L 1451.571 206.351 L 1465.714 205.045 L 1479.857 203.686 L 1494 202.282 L 1508.143 200.842 L 1522.286 199.372 L 1536.429 197.88 L 1550.571 196.373 L 1564.714 194.857 L 1578.857 193.339 L 1593 191.825 L 1607.143 190.319 L 1621.286 188.827 L 1635.429 187.355 L 1649.571 185.905 L 1663.714 184.481 L 1677.857 183.088 L 1692 181.728 L 1706.143 180.403 L 1720.286 179.116 L 1734.429 177.868 L 1748.571 176.662 L 1762.714 175.497 L 1776.857 174.376 L 1791 173.298 L 1805.143 172.265 L 1819.286 171.275 L 1833.429 170.329 L 1847.571 169.427 L 1861.714 168.569 L 1875.857 167.752 L 1890 166.978" fill="none" stroke="url(#atlas-spectrum)" stroke-opacity="0.42"/><path data-layer="field-line" data-line-kind="major" stroke-width="14" d="M -90 165.771 L -75.857 165.794 L -61.714 165.818 L -47.571 165.843 L -33.429 165.869 L -19.286 165.897 L -5.143 165.926 L 9 165.957 L 23.143 165.99 L 37.286 166.025 L 51.429 166.062 L 65.571 166.102 L 79.714 166.145 L 93.857 166.19 L 108 166.239 L 122.143 166.292 L 136.286 166.349 L 150.429 166.409 L 164.571 166.475 L 178.714 166.545 L 192.857 166.621 L 207 166.703 L 221.143 166.791 L 235.286 166.886 L 249.429 166.989 L 263.571 167.099 L 277.714 167.218 L 291.857 167.346 L 306 167.484 L 320.143 167.632 L 334.286 167.792 L 348.429 167.963 L 362.571 168.148 L 376.714 168.346 L 390.857 168.558 L 405 168.786 L 419.143 169.03 L 433.286 169.291 L 447.429 169.57 L 461.571 169.868 L 475.714 170.187 L 489.857 170.526 L 504 170.888 L 518.143 171.273 L 532.286 171.682 L 546.429 172.117 L 560.571 172.578 L 574.714 173.066 L 588.857 173.583 L 603 174.13 L 617.143 174.707 L 631.286 175.316 L 645.429 175.957 L 659.571 176.632 L 673.714 177.342 L 687.857 178.086 L 702 178.867 L 716.143 179.685 L 730.286 180.54 L 744.429 181.433 L 758.571 182.365 L 772.714 183.336 L 786.857 184.347 L 801 185.397 L 815.143 186.487 L 829.286 187.617 L 843.429 188.786 L 857.571 189.995 L 871.714 191.243 L 885.857 192.53 L 900 193.854 L 914.143 195.216 L 928.286 196.612 L 942.429 198.043 L 956.571 199.506 L 970.714 200.999 L 984.857 202.52 L 999 204.066 L 1013.143 205.634 L 1027.286 207.219 L 1041.429 208.818 L 1055.571 210.426" fill="none" stroke="url(#atlas-spectrum)" stroke-opacity="0.78"/><path data-layer="field-line" data-line-kind="major" stroke-width="14" d="M 1395 224.677 L 1409.143 223.619 L 1423.286 222.474 L 1437.429 221.249 L 1451.571 219.953 L 1465.714 218.594 L 1479.857 217.181 L 1494 215.721 L 1508.143 214.223 L 1522.286 212.695 L 1536.429 211.143 L 1550.571 209.576 L 1564.714 207.999 L 1578.857 206.421 L 1593 204.846 L 1607.143 203.28 L 1621.286 201.729 L 1635.429 200.197 L 1649.571 198.689 L 1663.714 197.209 L 1677.857 195.76 L 1692 194.345 L 1706.143 192.967 L 1720.286 191.629 L 1734.429 190.331 L 1748.571 189.076 L 1762.714 187.865 L 1776.857 186.699 L 1791 185.578 L 1805.143 184.503 L 1819.286 183.474 L 1833.429 182.49 L 1847.571 181.552 L 1861.714 180.659 L 1875.857 179.809 L 1890 179.004" fill="none" stroke="url(#atlas-spectrum)" stroke-opacity="0.78"/><path data-layer="field-line" data-line-kind="minor" stroke-width="4" d="M -90 177.364 L -75.857 177.387 L -61.714 177.411 L -47.571 177.437 L -33.429 177.463 L -19.286 177.492 L -5.143 177.521 L 9 177.553 L 23.143 177.587 L 37.286 177.623 L 51.429 177.661 L 65.571 177.702 L 79.714 177.746 L 93.857 177.793 L 108 177.843 L 122.143 177.897 L 136.286 177.955 L 150.429 178.018 L 164.571 178.085 L 178.714 178.158 L 192.857 178.236 L 207 178.321 L 221.143 178.412 L 235.286 178.51 L 249.429 178.616 L 263.571 178.73 L 277.714 178.853 L 291.857 178.985 L 306 179.128 L 320.143 179.281 L 334.286 179.446 L 348.429 179.624 L 362.571 179.815 L 376.714 180.02 L 390.857 180.24 L 405 180.476 L 419.143 180.729 L 433.286 180.999 L 447.429 181.288 L 461.571 181.598 L 475.714 181.928 L 489.857 182.28 L 504 182.655 L 518.143 183.054 L 532.286 183.478 L 546.429 183.929 L 560.571 184.407 L 574.714 184.913 L 588.857 185.449 L 603 186.016 L 617.143 186.615 L 631.286 187.246 L 645.429 187.912 L 659.571 188.612 L 673.714 189.348 L 687.857 190.12 L 702 190.93 L 716.143 191.779 L 730.286 192.666 L 744.429 193.593 L 758.571 194.56 L 772.714 195.567 L 786.857 196.616 L 801 197.705 L 815.143 198.836 L 829.286 200.009 L 843.429 201.222 L 857.571 202.477 L 871.714 203.772 L 885.857 205.107 L 900 206.482 L 914.143 207.894 L 928.286 209.343 L 942.429 210.828 L 956.571 212.346 L 970.714 213.896 L 984.857 215.474 L 999 217.079 L 1013.143 218.705 L 1027.286 220.351 L 1041.429 222.01 L 1055.571 223.678" fill="none" stroke="url(#atlas-spectrum)" stroke-opacity="0.42"/><path data-layer="field-line" data-line-kind="minor" stroke-width="4" d="M 1380.857 239.461 L 1395 238.461 L 1409.143 237.362 L 1423.286 236.172 L 1437.429 234.9 L 1451.571 233.554 L 1465.714 232.143 L 1479.857 230.676 L 1494 229.16 L 1508.143 227.605 L 1522.286 226.017 L 1536.429 224.406 L 1550.571 222.778 L 1564.714 221.141 L 1578.857 219.502 L 1593 217.866 L 1607.143 216.241 L 1621.286 214.63 L 1635.429 213.039 L 1649.571 211.473 L 1663.714 209.936 L 1677.857 208.432 L 1692 206.962 L 1706.143 205.532 L 1720.286 204.141 L 1734.429 202.794 L 1748.571 201.491 L 1762.714 200.233 L 1776.857 199.022 L 1791 197.858 L 1805.143 196.741 L 1819.286 195.672 L 1833.429 194.651 L 1847.571 193.676 L 1861.714 192.748 L 1875.857 191.866 L 1890 191.029" fill="none" stroke="url(#atlas-spectrum)" stroke-opacity="0.42"/><path data-layer="field-line" data-line-kind="minor" stroke-width="4" d="M -90 188.957 L -75.857 188.98 L -61.714 189.005 L -47.571 189.031 L -33.429 189.058 L -19.286 189.087 L -5.143 189.117 L 9 189.149 L 23.143 189.184 L 37.286 189.221 L 51.429 189.26 L 65.571 189.302 L 79.714 189.347 L 93.857 189.395 L 108 189.447 L 122.143 189.502 L 136.286 189.562 L 150.429 189.626 L 164.571 189.696 L 178.714 189.771 L 192.857 189.851 L 207 189.938 L 221.143 190.032 L 235.286 190.133 L 249.429 190.243 L 263.571 190.36 L 277.714 190.487 L 291.857 190.624 L 306 190.772 L 320.143 190.93 L 334.286 191.101 L 348.429 191.285 L 362.571 191.482 L 376.714 191.694 L 390.857 191.922 L 405 192.166 L 419.143 192.427 L 433.286 192.707 L 447.429 193.007 L 461.571 193.327 L 475.714 193.668 L 489.857 194.033 L 504 194.421 L 518.143 194.834 L 532.286 195.274 L 546.429 195.74 L 560.571 196.235 L 574.714 196.76 L 588.857 197.315 L 603 197.903 L 617.143 198.523 L 631.286 199.177 L 645.429 199.866 L 659.571 200.592 L 673.714 201.354 L 687.857 202.154 L 702 202.994 L 716.143 203.873 L 730.286 204.792 L 744.429 205.752 L 758.571 206.754 L 772.714 207.798 L 786.857 208.885 L 801 210.014 L 815.143 211.186 L 829.286 212.401 L 843.429 213.658 L 857.571 214.959 L 871.714 216.301 L 885.857 217.684 L 900 219.109 L 914.143 220.572 L 928.286 222.074 L 942.429 223.613 L 956.571 225.187 L 970.714 226.793 L 984.857 228.428 L 999 230.091 L 1013.143 231.777 L 1027.286 233.482 L 1041.429 235.202 L 1055.571 236.931" fill="none" stroke="url(#atlas-spectrum)" stroke-opacity="0.42"/><path data-layer="field-line" data-line-kind="minor" stroke-width="4" d="M 1352.571 255.013 L 1366.714 254.207 L 1380.857 253.281 L 1395 252.244 L 1409.143 251.105 L 1423.286 249.871 L 1437.429 248.552 L 1451.571 247.156 L 1465.714 245.693 L 1479.857 244.171 L 1494 242.599 L 1508.143 240.986 L 1522.286 239.34 L 1536.429 237.669 L 1550.571 235.981 L 1564.714 234.284 L 1578.857 232.584 L 1593 230.887 L 1607.143 229.201 L 1621.286 227.531 L 1635.429 225.882 L 1649.571 224.258 L 1663.714 222.664 L 1677.857 221.103 L 1692 219.58 L 1706.143 218.096 L 1720.286 216.654 L 1734.429 215.257 L 1748.571 213.905 L 1762.714 212.601 L 1776.857 211.345 L 1791 210.138 L 1805.143 208.98 L 1819.286 207.871 L 1833.429 206.811 L 1847.571 205.801 L 1861.714 204.838 L 1875.857 203.923 L 1890 203.055" fill="none" stroke="url(#atlas-spectrum)" stroke-opacity="0.42"/><path data-layer="field-line" data-line-kind="minor" stroke-width="4" d="M -90 200.384 L -75.857 200.387 L -61.714 200.389 L -47.571 200.389 L -33.429 200.388 L -19.286 200.385 L -5.143 200.381 L 9 200.375 L 23.143 200.366 L 37.286 200.355 L 51.429 200.342 L 65.571 200.326 L 79.714 200.306 L 93.857 200.283 L 108 200.257 L 122.143 200.227 L 136.286 200.192 L 150.429 200.152 L 164.571 200.107 L 178.714 200.057 L 192.857 200.001 L 207 199.938 L 221.143 199.868 L 235.286 199.79 L 249.429 199.704 L 263.571 199.609 L 277.714 199.505 L 291.857 199.39 L 306 199.265 L 320.143 199.128 L 334.286 198.978 L 348.429 198.815 L 362.571 198.638 L 376.714 198.445 L 390.857 198.237 L 405 198.011 L 419.143 197.768 L 433.286 197.505 L 447.429 197.222 L 461.571 196.918 L 475.714 196.591 L 489.857 196.241 L 504 195.866 L 518.143 195.465 L 532.286 195.038 L 546.429 194.582 L 560.571 194.096 L 574.714 193.58 L 588.857 193.032 L 603 192.451 L 617.143 191.836 L 631.286 191.186 L 645.429 190.499 L 659.571 189.776 L 673.714 189.013 L 687.857 188.212 L 702 187.37 L 716.143 186.487 L 730.286 185.562 L 744.429 184.595 L 758.571 183.585 L 772.714 182.531 L 786.857 181.433 L 801 180.291 L 815.143 179.105 L 829.286 177.874 L 843.429 176.599 L 857.571 175.28 L 871.714 173.917 L 885.857 172.512 L 900 171.064 L 914.143 169.576 L 928.286 168.048 L 942.429 166.482 L 956.571 164.88 L 970.714 163.244 L 984.857 161.577 L 999 159.883 L 1013.143 158.164 L 1027.286 156.426 L 1041.429 154.672 L 1055.571 152.909 L 1069.714 151.143 L 1083.857 149.38 L 1098 147.63 L 1112.143 145.9 L 1126.286 144.2 L 1140.429 142.543 L 1154.571 140.94" fill="none" stroke="url(#atlas-spectrum)" stroke-opacity="0.42"/><path data-layer="field-line" data-line-kind="minor" stroke-width="4" d="M 1423.286 140.217 L 1437.429 141.61 L 1451.571 143.082 L 1465.714 144.624 L 1479.857 146.227 L 1494 147.882 L 1508.143 149.579 L 1522.286 151.311 L 1536.429 153.068 L 1550.571 154.843 L 1564.714 156.627 L 1578.857 158.415 L 1593 160.198 L 1607.143 161.971 L 1621.286 163.727 L 1635.429 165.462 L 1649.571 167.171 L 1663.714 168.848 L 1677.857 170.491 L 1692 172.096 L 1706.143 173.659 L 1720.286 175.179 L 1734.429 176.653 L 1748.571 178.079 L 1762.714 179.457 L 1776.857 180.785 L 1791 182.062 L 1805.143 183.288 L 1819.286 184.463 L 1833.429 185.587 L 1847.571 186.661 L 1861.714 187.685 L 1875.857 188.659 L 1890 189.585" fill="none" stroke="url(#atlas-spectrum)" stroke-opacity="0.42"/><path data-layer="field-line" data-line-kind="minor" stroke-width="4" d="M -90 211.977 L -75.857 211.98 L -61.714 211.982 L -47.571 211.983 L -33.429 211.983 L -19.286 211.981 L -5.143 211.977 L 9 211.971 L 23.143 211.963 L 37.286 211.953 L 51.429 211.941 L 65.571 211.925 L 79.714 211.907 L 93.857 211.886 L 108 211.861 L 122.143 211.832 L 136.286 211.798 L 150.429 211.761 L 164.571 211.718 L 178.714 211.67 L 192.857 211.616 L 207 211.555 L 221.143 211.488 L 235.286 211.414 L 249.429 211.331 L 263.571 211.24 L 277.714 211.14 L 291.857 211.03 L 306 210.909 L 320.143 210.777 L 334.286 210.633 L 348.429 210.476 L 362.571 210.305 L 376.714 210.12 L 390.857 209.919 L 405 209.701 L 419.143 209.466 L 433.286 209.213 L 447.429 208.94 L 461.571 208.647 L 475.714 208.332 L 489.857 207.994 L 504 207.633 L 518.143 207.246 L 532.286 206.833 L 546.429 206.393 L 560.571 205.925 L 574.714 205.427 L 588.857 204.898 L 603 204.338 L 617.143 203.744 L 631.286 203.117 L 645.429 202.454 L 659.571 201.755 L 673.714 201.019 L 687.857 200.246 L 702 199.433 L 716.143 198.581 L 730.286 197.688 L 744.429 196.755 L 758.571 195.779 L 772.714 194.762 L 786.857 193.702 L 801 192.6 L 815.143 191.454 L 829.286 190.266 L 843.429 189.035 L 857.571 187.761 L 871.714 186.446 L 885.857 185.089 L 900 183.691 L 914.143 182.254 L 928.286 180.779 L 942.429 179.267 L 956.571 177.72 L 970.714 176.141 L 984.857 174.532 L 999 172.896 L 1013.143 171.236 L 1027.286 169.558 L 1041.429 167.864 L 1055.571 166.162 L 1069.714 164.457 L 1083.857 162.755 L 1098 161.064 L 1112.143 159.394" fill="none" stroke="url(#atlas-spectrum)" stroke-opacity="0.42"/><path data-layer="field-line" data-line-kind="minor" stroke-width="4" d="M 1423.286 153.916 L 1437.429 155.261 L 1451.571 156.684 L 1465.714 158.174 L 1479.857 159.722 L 1494 161.321 L 1508.143 162.961 L 1522.286 164.633 L 1536.429 166.331 L 1550.571 168.045 L 1564.714 169.769 L 1578.857 171.496 L 1593 173.219 L 1607.143 174.932 L 1621.286 176.629 L 1635.429 178.305 L 1649.571 179.955 L 1663.714 181.576 L 1677.857 183.163 L 1692 184.713 L 1706.143 186.224 L 1720.286 187.692 L 1734.429 189.116 L 1748.571 190.494 L 1762.714 191.825 L 1776.857 193.108 L 1791 194.342 L 1805.143 195.526 L 1819.286 196.662 L 1833.429 197.748 L 1847.571 198.785 L 1861.714 199.774 L 1875.857 200.716 L 1890 201.611" fill="none" stroke="url(#atlas-spectrum)" stroke-opacity="0.42"/><path data-layer="field-line" data-line-kind="major" stroke-width="14" d="M -90 223.57 L -75.857 223.573 L -61.714 223.576 L -47.571 223.577 L -33.429 223.577 L -19.286 223.576 L -5.143 223.572 L 9 223.567 L 23.143 223.56 L 37.286 223.551 L 51.429 223.54 L 65.571 223.525 L 79.714 223.508 L 93.857 223.488 L 108 223.464 L 122.143 223.437 L 136.286 223.405 L 150.429 223.369 L 164.571 223.328 L 178.714 223.282 L 192.857 223.231 L 207 223.173 L 221.143 223.109 L 235.286 223.037 L 249.429 222.958 L 263.571 222.871 L 277.714 222.774 L 291.857 222.669 L 306 222.553 L 320.143 222.426 L 334.286 222.287 L 348.429 222.136 L 362.571 221.972 L 376.714 221.794 L 390.857 221.6 L 405 221.391 L 419.143 221.165 L 433.286 220.921 L 447.429 220.659 L 461.571 220.376 L 475.714 220.073 L 489.857 219.747 L 504 219.399 L 518.143 219.027 L 532.286 218.629 L 546.429 218.205 L 560.571 217.754 L 574.714 217.274 L 588.857 216.764 L 603 216.224 L 617.143 215.652 L 631.286 215.047 L 645.429 214.408 L 659.571 213.735 L 673.714 213.026 L 687.857 212.28 L 702 211.496 L 716.143 210.675 L 730.286 209.814 L 744.429 208.914 L 758.571 207.974 L 772.714 206.993 L 786.857 205.971 L 801 204.908 L 815.143 203.804 L 829.286 202.658 L 843.429 201.471 L 857.571 200.243 L 871.714 198.975 L 885.857 197.666 L 900 196.318 L 914.143 194.933 L 928.286 193.51 L 942.429 192.052 L 956.571 190.56 L 970.714 189.038 L 984.857 187.486 L 999 185.908 L 1013.143 184.308 L 1027.286 182.689 L 1041.429 181.057 L 1055.571 179.415 L 1069.714 177.77 L 1083.857 176.129 L 1098 174.499" fill="none" stroke="url(#atlas-spectrum)" stroke-opacity="0.78"/><path data-layer="field-line" data-line-kind="major" stroke-width="14" d="M 1437.429 168.913 L 1451.571 170.285 L 1465.714 171.723 L 1479.857 173.217 L 1494 174.76 L 1508.143 176.342 L 1522.286 177.956 L 1536.429 179.594 L 1550.571 181.248 L 1564.714 182.911 L 1578.857 184.578 L 1593 186.24 L 1607.143 187.892 L 1621.286 189.53 L 1635.429 191.147 L 1649.571 192.739 L 1663.714 194.303 L 1677.857 195.835 L 1692 197.33 L 1706.143 198.788 L 1720.286 200.205 L 1734.429 201.579 L 1748.571 202.909 L 1762.714 204.193 L 1776.857 205.431 L 1791 206.622 L 1805.143 207.765 L 1819.286 208.86 L 1833.429 209.909 L 1847.571 210.91 L 1861.714 211.864 L 1875.857 212.773 L 1890 213.637" fill="none" stroke="url(#atlas-spectrum)" stroke-opacity="0.78"/><path data-layer="field-line" data-line-kind="minor" stroke-width="4" d="M -90 235.162 L -75.857 235.166 L -61.714 235.169 L -47.571 235.171 L -33.429 235.172 L -19.286 235.171 L -5.143 235.168 L 9 235.164 L 23.143 235.157 L 37.286 235.149 L 51.429 235.138 L 65.571 235.125 L 79.714 235.109 L 93.857 235.09 L 108 235.068 L 122.143 235.042 L 136.286 235.012 L 150.429 234.978 L 164.571 234.939 L 178.714 234.895 L 192.857 234.846 L 207 234.791 L 221.143 234.729 L 235.286 234.661 L 249.429 234.585 L 263.571 234.501 L 277.714 234.409 L 291.857 234.308 L 306 234.197 L 320.143 234.075 L 334.286 233.942 L 348.429 233.797 L 362.571 233.639 L 376.714 233.468 L 390.857 233.282 L 405 233.081 L 419.143 232.864 L 433.286 232.629 L 447.429 232.377 L 461.571 232.105 L 475.714 231.813 L 489.857 231.5 L 504 231.165 L 518.143 230.807 L 532.286 230.425 L 546.429 230.017 L 560.571 229.582 L 574.714 229.121 L 588.857 228.63 L 603 228.11 L 617.143 227.56 L 631.286 226.978 L 645.429 226.363 L 659.571 225.715 L 673.714 225.032 L 687.857 224.314 L 702 223.56 L 716.143 222.769 L 730.286 221.94 L 744.429 221.074 L 758.571 220.168 L 772.714 219.224 L 786.857 218.24 L 801 217.217 L 815.143 216.153 L 829.286 215.05 L 843.429 213.907 L 857.571 212.725 L 871.714 211.503 L 885.857 210.243 L 900 208.946 L 914.143 207.611 L 928.286 206.241 L 942.429 204.837 L 956.571 203.401 L 970.714 201.934 L 984.857 200.44 L 999 198.921 L 1013.143 197.38 L 1027.286 195.821 L 1041.429 194.249 L 1055.571 192.668 L 1069.714 191.084" fill="none" stroke="url(#atlas-spectrum)" stroke-opacity="0.42"/><path data-layer="field-line" data-line-kind="minor" stroke-width="4" d="M 1423.286 181.313 L 1437.429 182.564 L 1451.571 183.887 L 1465.714 185.272 L 1479.857 186.712 L 1494 188.198 L 1508.143 189.723 L 1522.286 191.278 L 1536.429 192.857 L 1550.571 194.451 L 1564.714 196.054 L 1578.857 197.659 L 1593 199.261 L 1607.143 200.853 L 1621.286 202.431 L 1635.429 203.989 L 1649.571 205.524 L 1663.714 207.031 L 1677.857 208.506 L 1692 209.948 L 1706.143 211.352 L 1720.286 212.718 L 1734.429 214.042 L 1748.571 215.323 L 1762.714 216.561 L 1776.857 217.754 L 1791 218.901 L 1805.143 220.003 L 1819.286 221.059 L 1833.429 222.069 L 1847.571 223.034 L 1861.714 223.954 L 1875.857 224.83 L 1890 225.662" fill="none" stroke="url(#atlas-spectrum)" stroke-opacity="0.42"/><path data-layer="field-line" data-line-kind="minor" stroke-width="4" d="M -90 246.755 L -75.857 246.76 L -61.714 246.763 L -47.571 246.765 L -33.429 246.766 L -19.286 246.766 L -5.143 246.764 L 9 246.76 L 23.143 246.755 L 37.286 246.747 L 51.429 246.737 L 65.571 246.725 L 79.714 246.71 L 93.857 246.692 L 108 246.671 L 122.143 246.647 L 136.286 246.619 L 150.429 246.586 L 164.571 246.549 L 178.714 246.508 L 192.857 246.461 L 207 246.408 L 221.143 246.35 L 235.286 246.284 L 249.429 246.212 L 263.571 246.132 L 277.714 246.044 L 291.857 245.947 L 306 245.84 L 320.143 245.724 L 334.286 245.596 L 348.429 245.457 L 362.571 245.306 L 376.714 245.142 L 390.857 244.964 L 405 244.771 L 419.143 244.562 L 433.286 244.337 L 447.429 244.095 L 461.571 243.834 L 475.714 243.554 L 489.857 243.254 L 504 242.932 L 518.143 242.588 L 532.286 242.22 L 546.429 241.828 L 560.571 241.411 L 574.714 240.967 L 588.857 240.496 L 603 239.997 L 617.143 239.468 L 631.286 238.908 L 645.429 238.317 L 659.571 237.694 L 673.714 237.038 L 687.857 236.348 L 702 235.623 L 716.143 234.863 L 730.286 234.066 L 744.429 233.233 L 758.571 232.363 L 772.714 231.455 L 786.857 230.509 L 801 229.525 L 815.143 228.503 L 829.286 227.442 L 843.429 226.343 L 857.571 225.206 L 871.714 224.032 L 885.857 222.82 L 900 221.573 L 914.143 220.29 L 928.286 218.972 L 942.429 217.622 L 956.571 216.241 L 970.714 214.831 L 984.857 213.394 L 999 211.933 L 1013.143 210.452 L 1027.286 208.953 L 1041.429 207.441 L 1055.571 205.921 L 1069.714 204.398" fill="none" stroke="url(#atlas-spectrum)" stroke-opacity="0.42"/><path data-layer="field-line" data-line-kind="minor" stroke-width="4" d="M 1423.286 195.011 L 1437.429 196.216 L 1451.571 197.488 L 1465.714 198.821 L 1479.857 200.207 L 1494 201.637 L 1508.143 203.104 L 1522.286 204.601 L 1536.429 206.119 L 1550.571 207.653 L 1564.714 209.196 L 1578.857 210.74 L 1593 212.282 L 1607.143 213.814 L 1621.286 215.332 L 1635.429 216.832 L 1649.571 218.308 L 1663.714 219.758 L 1677.857 221.178 L 1692 222.565 L 1706.143 223.917 L 1720.286 225.231 L 1734.429 226.505 L 1748.571 227.738 L 1762.714 228.929 L 1776.857 230.077 L 1791 231.181 L 1805.143 232.242 L 1819.286 233.258 L 1833.429 234.23 L 1847.571 235.159 L 1861.714 236.044 L 1875.857 236.887 L 1890 237.688" fill="none" stroke="url(#atlas-spectrum)" stroke-opacity="0.42"/><path data-layer="field-line" data-line-kind="minor" stroke-width="4" d="M -90 258.348 L -75.857 258.353 L -61.714 258.357 L -47.571 258.359 L -33.429 258.361 L -19.286 258.361 L -5.143 258.359 L 9 258.356 L 23.143 258.352 L 37.286 258.345 L 51.429 258.336 L 65.571 258.325 L 79.714 258.311 L 93.857 258.294 L 108 258.275 L 122.143 258.252 L 136.286 258.225 L 150.429 258.195 L 164.571 258.16 L 178.714 258.12 L 192.857 258.076 L 207 258.026 L 221.143 257.97 L 235.286 257.908 L 249.429 257.839 L 263.571 257.763 L 277.714 257.679 L 291.857 257.586 L 306 257.484 L 320.143 257.373 L 334.286 257.251 L 348.429 257.118 L 362.571 256.973 L 376.714 256.816 L 390.857 256.646 L 405 256.461 L 419.143 256.261 L 433.286 256.046 L 447.429 255.813 L 461.571 255.563 L 475.714 255.295 L 489.857 255.007 L 504 254.698 L 518.143 254.368 L 532.286 254.016 L 546.429 253.64 L 560.571 253.24 L 574.714 252.814 L 588.857 252.362 L 603 251.883 L 617.143 251.375 L 631.286 250.839 L 645.429 250.272 L 659.571 249.674 L 673.714 249.044 L 687.857 248.382 L 702 247.686 L 716.143 246.957 L 730.286 246.192 L 744.429 245.393 L 758.571 244.557 L 772.714 243.686 L 786.857 242.778 L 801 241.834 L 815.143 240.852 L 829.286 239.834 L 843.429 238.779 L 857.571 237.688 L 871.714 236.561 L 885.857 235.398 L 900 234.2 L 914.143 232.968 L 928.286 231.704 L 942.429 230.407 L 956.571 229.082 L 970.714 227.728 L 984.857 226.348 L 999 224.946 L 1013.143 223.523 L 1027.286 222.084 L 1041.429 220.633 L 1055.571 219.173" fill="none" stroke="url(#atlas-spectrum)" stroke-opacity="0.42"/><path data-layer="field-line" data-line-kind="minor" stroke-width="4" d="M 1409.143 207.626 L 1423.286 208.71 L 1437.429 209.867 L 1451.571 211.09 L 1465.714 212.371 L 1479.857 213.702 L 1494 215.076 L 1508.143 216.486 L 1522.286 217.923 L 1536.429 219.382 L 1550.571 220.856 L 1564.714 222.338 L 1578.857 223.822 L 1593 225.303 L 1607.143 226.775 L 1621.286 228.233 L 1635.429 229.674 L 1649.571 231.093 L 1663.714 232.486 L 1677.857 233.85 L 1692 235.183 L 1706.143 236.481 L 1720.286 237.743 L 1734.429 238.968 L 1748.571 240.153 L 1762.714 241.297 L 1776.857 242.4 L 1791 243.461 L 1805.143 244.48 L 1819.286 245.456 L 1833.429 246.391 L 1847.571 247.283 L 1861.714 248.134 L 1875.857 248.944 L 1890 249.714" fill="none" stroke="url(#atlas-spectrum)" stroke-opacity="0.42"/><path data-layer="field-line" data-line-kind="minor" stroke-width="4" d="M -90 269.941 L -75.857 269.946 L -61.714 269.95 L -47.571 269.953 L -33.429 269.955 L -19.286 269.956 L -5.143 269.955 L 9 269.953 L 23.143 269.949 L 37.286 269.943 L 51.429 269.935 L 65.571 269.925 L 79.714 269.912 L 93.857 269.897 L 108 269.878 L 122.143 269.857 L 136.286 269.832 L 150.429 269.803 L 164.571 269.77 L 178.714 269.733 L 192.857 269.691 L 207 269.644 L 221.143 269.591 L 235.286 269.532 L 249.429 269.466 L 263.571 269.394 L 277.714 269.313 L 291.857 269.225 L 306 269.128 L 320.143 269.022 L 334.286 268.906 L 348.429 268.779 L 362.571 268.64 L 376.714 268.49 L 390.857 268.327 L 405 268.151 L 419.143 267.96 L 433.286 267.754 L 447.429 267.532 L 461.571 267.292 L 475.714 267.036 L 489.857 266.76 L 504 266.465 L 518.143 266.149 L 532.286 265.812 L 546.429 265.452 L 560.571 265.069 L 574.714 264.661 L 588.857 264.228 L 603 263.769 L 617.143 263.283 L 631.286 262.769 L 645.429 262.226 L 659.571 261.654 L 673.714 261.05 L 687.857 260.416 L 702 259.75 L 716.143 259.05 L 730.286 258.318 L 744.429 257.552 L 758.571 256.752 L 772.714 255.917 L 786.857 255.047 L 801 254.142 L 815.143 253.202 L 829.286 252.226 L 843.429 251.215 L 857.571 250.17 L 871.714 249.089 L 885.857 247.975 L 900 246.827 L 914.143 245.647 L 928.286 244.435 L 942.429 243.193 L 956.571 241.922 L 970.714 240.625 L 984.857 239.303 L 999 237.958 L 1013.143 236.595 L 1027.286 235.216 L 1041.429 233.825 L 1055.571 232.426" fill="none" stroke="url(#atlas-spectrum)" stroke-opacity="0.42"/><path data-layer="field-line" data-line-kind="minor" stroke-width="4" d="M 1395 220.406 L 1409.143 221.369 L 1423.286 222.408 L 1437.429 223.518 L 1451.571 224.691 L 1465.714 225.92 L 1479.857 227.197 L 1494 228.515 L 1508.143 229.867 L 1522.286 231.246 L 1536.429 232.645 L 1550.571 234.059 L 1564.714 235.48 L 1578.857 236.903 L 1593 238.324 L 1607.143 239.736 L 1621.286 241.135 L 1635.429 242.516 L 1649.571 243.877 L 1663.714 245.213 L 1677.857 246.522 L 1692 247.8 L 1706.143 249.045 L 1720.286 250.256 L 1734.429 251.431 L 1748.571 252.567 L 1762.714 253.665 L 1776.857 254.723 L 1791 255.741 L 1805.143 256.718 L 1819.286 257.655 L 1833.429 258.551 L 1847.571 259.408 L 1861.714 260.224 L 1875.857 261.001 L 1890 261.74" fill="none" stroke="url(#atlas-spectrum)" stroke-opacity="0.42"/><path data-layer="field-line" data-line-kind="major" stroke-width="14" d="M -90 281.534 L -75.857 281.539 L -61.714 281.544 L -47.571 281.547 L -33.429 281.55 L -19.286 281.551 L -5.143 281.551 L 9 281.549 L 23.143 281.546 L 37.286 281.541 L 51.429 281.534 L 65.571 281.524 L 79.714 281.513 L 93.857 281.499 L 108 281.482 L 122.143 281.462 L 136.286 281.439 L 150.429 281.412 L 164.571 281.381 L 178.714 281.346 L 192.857 281.306 L 207 281.261 L 221.143 281.211 L 235.286 281.155 L 249.429 281.093 L 263.571 281.024 L 277.714 280.948 L 291.857 280.864 L 306 280.772 L 320.143 280.671 L 334.286 280.56 L 348.429 280.439 L 362.571 280.308 L 376.714 280.164 L 390.857 280.009 L 405 279.841 L 419.143 279.658 L 433.286 279.462 L 447.429 279.25 L 461.571 279.022 L 475.714 278.776 L 489.857 278.513 L 504 278.231 L 518.143 277.93 L 532.286 277.607 L 546.429 277.264 L 560.571 276.897 L 574.714 276.508 L 588.857 276.094 L 603 275.656 L 617.143 275.191 L 631.286 274.7 L 645.429 274.181 L 659.571 273.633 L 673.714 273.057 L 687.857 272.45 L 702 271.813 L 716.143 271.144 L 730.286 270.444 L 744.429 269.712 L 758.571 268.946 L 772.714 268.148 L 786.857 267.316 L 801 266.451 L 815.143 265.551 L 829.286 264.618 L 843.429 263.651 L 857.571 262.651 L 871.714 261.618 L 885.857 260.552 L 900 259.454 L 914.143 258.325 L 928.286 257.166 L 942.429 255.978 L 956.571 254.762 L 970.714 253.521 L 984.857 252.257 L 999 250.971 L 1013.143 249.667 L 1027.286 248.348 L 1041.429 247.017 L 1055.571 245.679" fill="none" stroke="url(#atlas-spectrum)" stroke-opacity="0.78"/><path data-layer="field-line" data-line-kind="major" stroke-width="14" d="M 1380.857 233.349 L 1395 234.19 L 1409.143 235.111 L 1423.286 236.107 L 1437.429 237.17 L 1451.571 238.293 L 1465.714 239.469 L 1479.857 240.692 L 1494 241.954 L 1508.143 243.248 L 1522.286 244.568 L 1536.429 245.908 L 1550.571 247.261 L 1564.714 248.622 L 1578.857 249.985 L 1593 251.345 L 1607.143 252.696 L 1621.286 254.036 L 1635.429 255.359 L 1649.571 256.661 L 1663.714 257.941 L 1677.857 259.194 L 1692 260.417 L 1706.143 261.61 L 1720.286 262.769 L 1734.429 263.894 L 1748.571 264.982 L 1762.714 266.033 L 1776.857 267.046 L 1791 268.021 L 1805.143 268.957 L 1819.286 269.854 L 1833.429 270.712 L 1847.571 271.532 L 1861.714 272.314 L 1875.857 273.058 L 1890 273.766" fill="none" stroke="url(#atlas-spectrum)" stroke-opacity="0.78"/><path data-layer="field-line" data-line-kind="minor" stroke-width="4" d="M -90 293.127 L -75.857 293.132 L -61.714 293.137 L -47.571 293.141 L -33.429 293.144 L -19.286 293.146 L -5.143 293.146 L 9 293.145 L 23.143 293.143 L 37.286 293.139 L 51.429 293.133 L 65.571 293.124 L 79.714 293.114 L 93.857 293.101 L 108 293.085 L 122.143 293.067 L 136.286 293.045 L 150.429 293.02 L 164.571 292.991 L 178.714 292.958 L 192.857 292.921 L 207 292.879 L 221.143 292.832 L 235.286 292.779 L 249.429 292.72 L 263.571 292.655 L 277.714 292.583 L 291.857 292.503 L 306 292.416 L 320.143 292.32 L 334.286 292.215 L 348.429 292.1 L 362.571 291.975 L 376.714 291.839 L 390.857 291.691 L 405 291.531 L 419.143 291.357 L 433.286 291.17 L 447.429 290.968 L 461.571 290.751 L 475.714 290.517 L 489.857 290.266 L 504 289.998 L 518.143 289.71 L 532.286 289.403 L 546.429 289.075 L 560.571 288.726 L 574.714 288.355 L 588.857 287.961 L 603 287.542 L 617.143 287.099 L 631.286 286.63 L 645.429 286.135 L 659.571 285.613 L 673.714 285.063 L 687.857 284.484 L 702 283.876 L 716.143 283.238 L 730.286 282.57 L 744.429 281.871 L 758.571 281.141 L 772.714 280.379 L 786.857 279.585 L 801 278.759 L 815.143 277.901 L 829.286 277.01 L 843.429 276.088 L 857.571 275.133 L 871.714 274.147 L 885.857 273.129 L 900 272.081 L 914.143 271.003 L 928.286 269.897 L 942.429 268.763 L 956.571 267.603 L 970.714 266.418 L 984.857 265.211 L 999 263.984 L 1013.143 262.739 L 1027.286 261.479 L 1041.429 260.209 L 1055.571 258.932" fill="none" stroke="url(#atlas-spectrum)" stroke-opacity="0.42"/><path data-layer="field-line" data-line-kind="minor" stroke-width="4" d="M 1366.714 246.451 L 1380.857 247.17 L 1395 247.974 L 1409.143 248.854 L 1423.286 249.806 L 1437.429 250.821 L 1451.571 251.895 L 1465.714 253.019 L 1479.857 254.187 L 1494 255.392 L 1508.143 256.629 L 1522.286 257.891 L 1536.429 259.171 L 1550.571 260.464 L 1564.714 261.764 L 1578.857 263.066 L 1593 264.365 L 1607.143 265.657 L 1621.286 266.937 L 1635.429 268.201 L 1649.571 269.446 L 1663.714 270.668 L 1677.857 271.865 L 1692 273.035 L 1706.143 274.174 L 1720.286 275.282 L 1734.429 276.357 L 1748.571 277.396 L 1762.714 278.401 L 1776.857 279.369 L 1791 280.301 L 1805.143 281.195 L 1819.286 282.052 L 1833.429 282.873 L 1847.571 283.656 L 1861.714 284.404 L 1875.857 285.115 L 1890 285.792" fill="none" stroke="url(#atlas-spectrum)" stroke-opacity="0.42"/><path data-layer="field-line" data-line-kind="minor" stroke-width="4" d="M -90 304.719 L -75.857 304.726 L -61.714 304.731 L -47.571 304.735 L -33.429 304.739 L -19.286 304.741 L -5.143 304.742 L 9 304.742 L 23.143 304.74 L 37.286 304.737 L 51.429 304.731 L 65.571 304.724 L 79.714 304.715 L 93.857 304.703 L 108 304.689 L 122.143 304.672 L 136.286 304.652 L 150.429 304.629 L 164.571 304.602 L 178.714 304.571 L 192.857 304.536 L 207 304.497 L 221.143 304.452 L 235.286 304.403 L 249.429 304.347 L 263.571 304.286 L 277.714 304.218 L 291.857 304.142 L 306 304.06 L 320.143 303.969 L 334.286 303.869 L 348.429 303.76 L 362.571 303.642 L 376.714 303.513 L 390.857 303.373 L 405 303.22 L 419.143 303.056 L 433.286 302.878 L 447.429 302.686 L 461.571 302.48 L 475.714 302.258 L 489.857 302.019 L 504 301.764 L 518.143 301.491 L 532.286 301.199 L 546.429 300.887 L 560.571 300.555 L 574.714 300.202 L 588.857 299.827 L 603 299.429 L 617.143 299.007 L 631.286 298.561 L 645.429 298.09 L 659.571 297.593 L 673.714 297.069 L 687.857 296.518 L 702 295.939 L 716.143 295.332 L 730.286 294.696 L 744.429 294.031 L 758.571 293.335 L 772.714 292.61 L 786.857 291.854 L 801 291.067 L 815.143 290.25 L 829.286 289.402 L 843.429 288.524 L 857.571 287.614 L 871.714 286.675 L 885.857 285.706 L 900 284.708 L 914.143 283.682 L 928.286 282.628 L 942.429 281.548 L 956.571 280.443 L 970.714 279.315 L 984.857 278.165 L 999 276.996 L 1013.143 275.81 L 1027.286 274.611 L 1041.429 273.401 L 1055.571 272.185 L 1069.714 270.966" fill="none" stroke="url(#atlas-spectrum)" stroke-opacity="0.42"/><path data-layer="field-line" data-line-kind="minor" stroke-width="4" d="M 1338.429 259.194 L 1352.571 259.704 L 1366.714 260.305 L 1380.857 260.991 L 1395 261.757 L 1409.143 262.597 L 1423.286 263.504 L 1437.429 264.473 L 1451.571 265.496 L 1465.714 266.568 L 1479.857 267.682 L 1494 268.831 L 1508.143 270.01 L 1522.286 271.213 L 1536.429 272.434 L 1550.571 273.667 L 1564.714 274.906 L 1578.857 276.148 L 1593 277.386 L 1607.143 278.618 L 1621.286 279.838 L 1635.429 281.043 L 1649.571 282.23 L 1663.714 283.396 L 1677.857 284.537 L 1692 285.652 L 1706.143 286.739 L 1720.286 287.795 L 1734.429 288.819 L 1748.571 289.811 L 1762.714 290.769 L 1776.857 291.692 L 1791 292.58 L 1805.143 293.433 L 1819.286 294.251 L 1833.429 295.033 L 1847.571 295.781 L 1861.714 296.494 L 1875.857 297.172 L 1890 297.817" fill="none" stroke="url(#atlas-spectrum)" stroke-opacity="0.42"/><path data-layer="field-line" data-line-kind="minor" stroke-width="4" d="M -90 316.312 L -75.857 316.319 L -61.714 316.325 L -47.571 316.329 L -33.429 316.333 L -19.286 316.336 L -5.143 316.338 L 9 316.338 L 23.143 316.337 L 37.286 316.334 L 51.429 316.33 L 65.571 316.324 L 79.714 316.316 L 93.857 316.305 L 108 316.293 L 122.143 316.277 L 136.286 316.259 L 150.429 316.237 L 164.571 316.212 L 178.714 316.184 L 192.857 316.151 L 207 316.114 L 221.143 316.073 L 235.286 316.026 L 249.429 315.974 L 263.571 315.916 L 277.714 315.852 L 291.857 315.782 L 306 315.703 L 320.143 315.618 L 334.286 315.524 L 348.429 315.421 L 362.571 315.309 L 376.714 315.187 L 390.857 315.054 L 405 314.91 L 419.143 314.755 L 433.286 314.586 L 447.429 314.405 L 461.571 314.209 L 475.714 313.998 L 489.857 313.773 L 504 313.53 L 518.143 313.271 L 532.286 312.994 L 546.429 312.699 L 560.571 312.384 L 574.714 312.049 L 588.857 311.693 L 603 311.315 L 617.143 310.915 L 631.286 310.491 L 645.429 310.044 L 659.571 309.572 L 673.714 309.075 L 687.857 308.552 L 702 308.003 L 716.143 307.426 L 730.286 306.822 L 744.429 306.19 L 758.571 305.53 L 772.714 304.841 L 786.857 304.123 L 801 303.376 L 815.143 302.6 L 829.286 301.794 L 843.429 300.96 L 857.571 300.096 L 871.714 299.204 L 885.857 298.284 L 900 297.335 L 914.143 296.36 L 928.286 295.359 L 942.429 294.333 L 956.571 293.283 L 970.714 292.212 L 984.857 291.119 L 999 290.009 L 1013.143 288.882 L 1027.286 287.743 L 1041.429 286.593 L 1055.571 285.437 L 1069.714 284.28 L 1083.857 283.124" fill="none" stroke="url(#atlas-spectrum)" stroke-opacity="0.42"/><path data-layer="field-line" data-line-kind="minor" stroke-width="4" d="M 1310.143 272.414 L 1324.286 272.709 L 1338.429 273.102 L 1352.571 273.587 L 1366.714 274.158 L 1380.857 274.812 L 1395 275.541 L 1409.143 276.34 L 1423.286 277.203 L 1437.429 278.124 L 1451.571 279.098 L 1465.714 280.117 L 1479.857 281.177 L 1494 282.27 L 1508.143 283.392 L 1522.286 284.536 L 1536.429 285.697 L 1550.571 286.869 L 1564.714 288.048 L 1578.857 289.229 L 1593 290.407 L 1607.143 291.579 L 1621.286 292.739 L 1635.429 293.886 L 1649.571 295.015 L 1663.714 296.123 L 1677.857 297.209 L 1692 298.269 L 1706.143 299.303 L 1720.286 300.308 L 1734.429 301.282 L 1748.571 302.226 L 1762.714 303.137 L 1776.857 304.015 L 1791 304.86 L 1805.143 305.672 L 1819.286 306.45 L 1833.429 307.194 L 1847.571 307.905 L 1861.714 308.583 L 1875.857 309.229 L 1890 309.843" fill="none" stroke="url(#atlas-spectrum)" stroke-opacity="0.42"/><path data-layer="field-line" data-line-kind="minor" stroke-width="4" d="M -90 327.905 L -75.857 327.912 L -61.714 327.918 L -47.571 327.923 L -33.429 327.928 L -19.286 327.931 L -5.143 327.933 L 9 327.934 L 23.143 327.934 L 37.286 327.932 L 51.429 327.929 L 65.571 327.924 L 79.714 327.917 L 93.857 327.908 L 108 327.896 L 122.143 327.882 L 136.286 327.865 L 150.429 327.846 L 164.571 327.823 L 178.714 327.796 L 192.857 327.766 L 207 327.732 L 221.143 327.693 L 235.286 327.65 L 249.429 327.601 L 263.571 327.547 L 277.714 327.487 L 291.857 327.421 L 306 327.347 L 320.143 327.267 L 334.286 327.178 L 348.429 327.082 L 362.571 326.976 L 376.714 326.861 L 390.857 326.736 L 405 326.6 L 419.143 326.453 L 433.286 326.294 L 447.429 326.123 L 461.571 325.938 L 475.714 325.739 L 489.857 325.526 L 504 325.297 L 518.143 325.052 L 532.286 324.79 L 546.429 324.51 L 560.571 324.213 L 574.714 323.896 L 588.857 323.559 L 603 323.201 L 617.143 322.823 L 631.286 322.422 L 645.429 321.999 L 659.571 321.552 L 673.714 321.081 L 687.857 320.586 L 702 320.066 L 716.143 319.52 L 730.286 318.948 L 744.429 318.35 L 758.571 317.724 L 772.714 317.072 L 786.857 316.392 L 801 315.684 L 815.143 314.949 L 829.286 314.186 L 843.429 313.396 L 857.571 312.578 L 871.714 311.733 L 885.857 310.861 L 900 309.963 L 914.143 309.039 L 928.286 308.09 L 942.429 307.118 L 956.571 306.124 L 970.714 305.108 L 984.857 304.073 L 999 303.021 L 1013.143 301.954 L 1027.286 300.874 L 1041.429 299.785 L 1055.571 298.69 L 1069.714 297.593 L 1083.857 296.498 L 1098 295.411 L 1112.143 294.337 L 1126.286 293.282" fill="none" stroke="url(#atlas-spectrum)" stroke-opacity="0.42"/><path data-layer="field-line" data-line-kind="minor" stroke-width="4" d="M 1267.714 286.131 L 1281.857 286.096 L 1296 286.174 L 1310.143 286.356 L 1324.286 286.636 L 1338.429 287.009 L 1352.571 287.47 L 1366.714 288.012 L 1380.857 288.632 L 1395 289.324 L 1409.143 290.082 L 1423.286 290.901 L 1437.429 291.776 L 1451.571 292.699 L 1465.714 293.666 L 1479.857 294.672 L 1494 295.709 L 1508.143 296.773 L 1522.286 297.858 L 1536.429 298.96 L 1550.571 300.072 L 1564.714 301.19 L 1578.857 302.311 L 1593 303.428 L 1607.143 304.539 L 1621.286 305.64 L 1635.429 306.728 L 1649.571 307.799 L 1663.714 308.851 L 1677.857 309.881 L 1692 310.887 L 1706.143 311.867 L 1720.286 312.821 L 1734.429 313.745 L 1748.571 314.64 L 1762.714 315.505 L 1776.857 316.338 L 1791 317.14 L 1805.143 317.91 L 1819.286 318.648 L 1833.429 319.355 L 1847.571 320.03 L 1861.714 320.673 L 1875.857 321.286 L 1890 321.869" fill="none" stroke="url(#atlas-spectrum)" stroke-opacity="0.42"/><path data-layer="field-line" data-line-kind="major" stroke-width="14" d="M -90 339.498 L -75.857 339.505 L -61.714 339.512 L -47.571 339.517 L -33.429 339.522 L -19.286 339.526 L -5.143 339.529 L 9 339.531 L 23.143 339.531 L 37.286 339.53 L 51.429 339.528 L 65.571 339.524 L 79.714 339.518 L 93.857 339.51 L 108 339.5 L 122.143 339.487 L 136.286 339.472 L 150.429 339.454 L 164.571 339.433 L 178.714 339.409 L 192.857 339.381 L 207 339.35 L 221.143 339.314 L 235.286 339.273 L 249.429 339.228 L 263.571 339.178 L 277.714 339.122 L 291.857 339.06 L 306 338.991 L 320.143 338.916 L 334.286 338.833 L 348.429 338.742 L 362.571 338.643 L 376.714 338.535 L 390.857 338.418 L 405 338.29 L 419.143 338.152 L 433.286 338.002 L 447.429 337.841 L 461.571 337.667 L 475.714 337.48 L 489.857 337.279 L 504 337.063 L 518.143 336.832 L 532.286 336.586 L 546.429 336.322 L 560.571 336.041 L 574.714 335.742 L 588.857 335.425 L 603 335.088 L 617.143 334.73 L 631.286 334.352 L 645.429 333.953 L 659.571 333.532 L 673.714 333.087 L 687.857 332.62 L 702 332.129 L 716.143 331.614 L 730.286 331.074 L 744.429 330.509 L 758.571 329.919 L 772.714 329.303 L 786.857 328.661 L 801 327.993 L 815.143 327.299 L 829.286 326.578 L 843.429 325.832 L 857.571 325.059 L 871.714 324.261 L 885.857 323.438 L 900 322.59 L 914.143 321.717 L 928.286 320.822 L 942.429 319.904 L 956.571 318.964 L 970.714 318.005 L 984.857 317.028 L 999 316.034 L 1013.143 315.026 L 1027.286 314.006 L 1041.429 312.977 L 1055.571 311.943 L 1069.714 310.907 L 1083.857 309.873 L 1098 308.846 L 1112.143 307.831 L 1126.286 306.834 L 1140.429 305.862 L 1154.571 304.923 L 1168.714 304.023 L 1182.857 303.174 L 1197 302.384 L 1211.143 301.669 L 1225.286 301.044 L 1239.429 300.537 L 1253.571 300.233 L 1267.714 300.083 L 1281.857 300.051 L 1296 300.125 L 1310.143 300.298 L 1324.286 300.564 L 1338.429 300.917 L 1352.571 301.353 L 1366.714 301.866 L 1380.857 302.453 L 1395 303.108 L 1409.143 303.825 L 1423.286 304.6 L 1437.429 305.427 L 1451.571 306.301 L 1465.714 307.216 L 1479.857 308.166 L 1494 309.148 L 1508.143 310.154 L 1522.286 311.181 L 1536.429 312.223 L 1550.571 313.275 L 1564.714 314.333 L 1578.857 315.392 L 1593 316.449 L 1607.143 317.5 L 1621.286 318.542 L 1635.429 319.57 L 1649.571 320.583 L 1663.714 321.578 L 1677.857 322.552 L 1692 323.504 L 1706.143 324.432 L 1720.286 325.334 L 1734.429 326.208 L 1748.571 327.055 L 1762.714 327.873 L 1776.857 328.661 L 1791 329.42 L 1805.143 330.149 L 1819.286 330.847 L 1833.429 331.515 L 1847.571 332.154 L 1861.714 332.763 L 1875.857 333.343 L 1890 333.895" fill="none" stroke="url(#atlas-spectrum)" stroke-opacity="0.78"/><path data-layer="field-line" data-line-kind="minor" stroke-width="4" d="M -90 351.091 L -75.857 351.098 L -61.714 351.105 L -47.571 351.111 L -33.429 351.117 L -19.286 351.121 L -5.143 351.125 L 9 351.127 L 23.143 351.128 L 37.286 351.128 L 51.429 351.127 L 65.571 351.124 L 79.714 351.119 L 93.857 351.112 L 108 351.103 L 122.143 351.092 L 136.286 351.079 L 150.429 351.063 L 164.571 351.044 L 178.714 351.022 L 192.857 350.996 L 207 350.967 L 221.143 350.934 L 235.286 350.897 L 249.429 350.855 L 263.571 350.809 L 277.714 350.757 L 291.857 350.699 L 306 350.635 L 320.143 350.565 L 334.286 350.488 L 348.429 350.403 L 362.571 350.31 L 376.714 350.209 L 390.857 350.099 L 405 349.98 L 419.143 349.851 L 433.286 349.711 L 447.429 349.559 L 461.571 349.396 L 475.714 349.221 L 489.857 349.032 L 504 348.83 L 518.143 348.613 L 532.286 348.381 L 546.429 348.134 L 560.571 347.87 L 574.714 347.589 L 588.857 347.291 L 603 346.974 L 617.143 346.638 L 631.286 346.283 L 645.429 345.908 L 659.571 345.511 L 673.714 345.094 L 687.857 344.654 L 702 344.193 L 716.143 343.708 L 730.286 343.2 L 744.429 342.669 L 758.571 342.113 L 772.714 341.534 L 786.857 340.93 L 801 340.301 L 815.143 339.648 L 829.286 338.97 L 843.429 338.268 L 857.571 337.541 L 871.714 336.79 L 885.857 336.015 L 900 335.217 L 914.143 334.396 L 928.286 333.553 L 942.429 332.689 L 956.571 331.805 L 970.714 330.902 L 984.857 329.982 L 999 329.046 L 1013.143 328.098 L 1027.286 327.138 L 1041.429 326.169 L 1055.571 325.196 L 1069.714 324.22 L 1083.857 323.247 L 1098 322.28 L 1112.143 321.325 L 1126.286 320.387 L 1140.429 319.472 L 1154.571 318.588 L 1168.714 317.741 L 1182.857 316.942 L 1197 316.199 L 1211.143 315.526 L 1225.286 314.938 L 1239.429 314.462 L 1253.571 314.175 L 1267.714 314.035 L 1281.857 314.005 L 1296 314.076 L 1310.143 314.24 L 1324.286 314.491 L 1338.429 314.824 L 1352.571 315.236 L 1366.714 315.72 L 1380.857 316.274 L 1395 316.891 L 1409.143 317.568 L 1423.286 318.299 L 1437.429 319.078 L 1451.571 319.902 L 1465.714 320.765 L 1479.857 321.661 L 1494 322.587 L 1508.143 323.535 L 1522.286 324.503 L 1536.429 325.485 L 1550.571 326.477 L 1564.714 327.475 L 1578.857 328.474 L 1593 329.47 L 1607.143 330.461 L 1621.286 331.443 L 1635.429 332.413 L 1649.571 333.368 L 1663.714 334.306 L 1677.857 335.224 L 1692 336.122 L 1706.143 336.996 L 1720.286 337.846 L 1734.429 338.671 L 1748.571 339.47 L 1762.714 340.241 L 1776.857 340.984 L 1791 341.7 L 1805.143 342.387 L 1819.286 343.046 L 1833.429 343.676 L 1847.571 344.279 L 1861.714 344.853 L 1875.857 345.4 L 1890 345.921" fill="none" stroke="url(#atlas-spectrum)" stroke-opacity="0.42"/><g data-layer="continuous-lens-aperture-group"><path data-layer="continuous-lens-aperture" d="M 1062.107 246.252 C 1050.754 200.716 1122.091 143.72 1221.443 118.949 C 1320.795 94.178 1410.539 111.011 1421.893 156.548 C 1433.246 202.084 1361.909 259.08 1262.557 283.851 C 1163.205 308.622 1073.461 291.789 1062.107 246.252 Z" fill="#0E0E0E" stroke="#F9F8F2" stroke-width="4"/></g><g data-layer="signal-trajectory-group" data-state="active"><path data-layer="signal-trajectory" data-role="path" d="M 90 262.2 C 612 235.6 1044 209 1746 110.2" fill="none" stroke="#C6FF24" stroke-width="14" stroke-linecap="round"/><circle data-layer="signal-trajectory" data-role="datum" cx="1746" cy="110.2" r="10.5" fill="#C6FF24"/></g></svg>
